<svg xmlns="http://www.w3.org/2000/svg" xmlns:xlink="http://www.w3.org/1999/xlink" width="500" zoomAndPan="magnify" viewBox="0 0 375 374.999991" height="500" preserveAspectRatio="xMidYMid meet" version="1.0"><defs><g/><clipPath id="d4eb165ef3"><path d="M 237 176 L 255 176 L 255 198 L 237 198 Z M 237 176 " clip-rule="nonzero"/></clipPath><clipPath id="629927772f"><path d="M 240.792969 173.898438 L 256.476562 181.074219 L 247.425781 200.851562 L 231.742188 193.675781 Z M 240.792969 173.898438 " clip-rule="nonzero"/></clipPath><clipPath id="16bcafc20e"><path d="M 240.792969 173.898438 L 256.476562 181.074219 L 247.425781 200.851562 L 231.742188 193.675781 Z M 240.792969 173.898438 " clip-rule="nonzero"/></clipPath></defs><g fill="#000001" fill-opacity="1"><g transform="translate(28.388516, 259.017313)"><g><path d="M 12.09375 0.90625 C 10.519531 0.664062 9.859375 -0.175781 10.109375 -1.625 C 10.460938 -2.820312 10.878906 -3.785156 11.359375 -4.515625 C 11.960938 -5.710938 13.109375 -7.273438 14.796875 -9.203125 C 15.878906 -10.523438 17.082031 -11.726562 18.40625 -12.8125 C 20.082031 -14.488281 21.070312 -15.65625 21.375 -16.3125 C 21.675781 -16.976562 21.945312 -18.515625 22.1875 -20.921875 C 22.664062 -27.535156 22.1875 -35.054688 20.75 -43.484375 C 20.144531 -46.003906 19.421875 -48.285156 18.578125 -50.328125 C 17.253906 -52.859375 15.691406 -54.484375 13.890625 -55.203125 C 13.410156 -54.484375 12.867188 -52.738281 12.265625 -49.96875 C 8.898438 -35.175781 6.675781 -23.210938 5.59375 -14.078125 C 5.59375 -13.109375 5.351562 -12.203125 4.875 -11.359375 C 4.75 -10.878906 4.382812 -10.640625 3.78125 -10.640625 C 3.1875 -10.640625 2.828125 -10.878906 2.703125 -11.359375 C 2.460938 -11.722656 2.222656 -12.382812 1.984375 -13.34375 C 1.859375 -14.550781 1.796875 -16.359375 1.796875 -18.765625 C 1.796875 -21.171875 2.21875 -26.703125 3.0625 -35.359375 C 3.1875 -37.046875 3.457031 -39.8125 3.875 -43.65625 C 4.300781 -47.507812 4.632812 -50.457031 4.875 -52.5 C 5.113281 -54.300781 4.570312 -55.265625 3.25 -55.390625 C 2.769531 -55.503906 2.707031 -55.921875 3.0625 -56.640625 L 3.78125 -57.015625 C 4.75 -57.492188 5.351562 -58.394531 5.59375 -59.71875 C 6.195312 -66.332031 7.457031 -74.8125 9.375 -85.15625 C 9.863281 -87.800781 10.707031 -91.828125 11.90625 -97.234375 C 13.101562 -102.648438 14.003906 -106.679688 14.609375 -109.328125 L 17.859375 -126.109375 C 17.984375 -127.066406 18.285156 -128.207031 18.765625 -129.53125 C 19.003906 -130.132812 19.363281 -130.375 19.84375 -130.25 C 20.445312 -130.25 20.75 -129.945312 20.75 -129.34375 L 20.75 -126.46875 C 20.507812 -125.144531 20.117188 -122.644531 19.578125 -118.96875 C 19.035156 -115.300781 18.582031 -112.445312 18.21875 -110.40625 L 12.625 -81.546875 C 11.78125 -77.453125 10.757812 -70.894531 9.5625 -61.875 C 9.5625 -61.757812 9.585938 -61.582031 9.640625 -61.34375 C 9.703125 -61.101562 9.734375 -60.859375 9.734375 -60.609375 C 12.628906 -61.816406 14.375 -63.5625 14.96875 -65.84375 C 17.613281 -75.46875 20.863281 -84.3125 24.71875 -92.375 C 27.363281 -98.019531 30.789062 -103.3125 35 -108.25 C 36.195312 -109.8125 37.703125 -111.375 39.515625 -112.9375 C 40.347656 -113.894531 41.25 -114.4375 42.21875 -114.5625 C 43.78125 -115.15625 44.921875 -114.789062 45.640625 -113.46875 C 46.359375 -112.394531 46.71875 -111.253906 46.71875 -110.046875 C 47.082031 -105.835938 46.664062 -101.929688 45.46875 -98.328125 C 41.375 -85.453125 34.097656 -75.226562 23.640625 -67.65625 C 22.910156 -67.050781 21.796875 -66.175781 20.296875 -65.03125 C 18.796875 -63.894531 17.625 -63.082031 16.78125 -62.59375 C 15.695312 -61.875 14.972656 -60.914062 14.609375 -59.71875 C 14.367188 -58.75 14.304688 -58.113281 14.421875 -57.8125 C 14.546875 -57.519531 15.03125 -57.070312 15.875 -56.46875 C 17.800781 -55.257812 19.425781 -53.273438 20.75 -50.515625 C 21.945312 -47.148438 22.664062 -44.5625 22.90625 -42.75 C 24.351562 -35.300781 24.835938 -28.628906 24.359375 -22.734375 L 24.359375 -20.203125 C 24.359375 -19.597656 24.476562 -19.296875 24.71875 -19.296875 C 25.070312 -19.296875 25.429688 -19.476562 25.796875 -19.84375 L 27.96875 -21.65625 C 35.175781 -28.269531 41.609375 -33.859375 47.265625 -38.421875 C 53.640625 -43.597656 62.898438 -49.851562 75.046875 -57.1875 L 76.3125 -57.734375 C 76.914062 -57.734375 77.273438 -57.671875 77.390625 -57.546875 C 77.628906 -57.191406 77.507812 -56.769531 77.03125 -56.28125 C 75.226562 -55.195312 74.207031 -54.597656 73.96875 -54.484375 C 62.300781 -46.898438 54.363281 -41.488281 50.15625 -38.25 C 46.664062 -35.476562 38.304688 -28.203125 25.078125 -16.421875 C 23.867188 -15.210938 23.207031 -14.007812 23.09375 -12.8125 C 22.25 -9.6875 21.285156 -7.097656 20.203125 -5.046875 C 18.878906 -2.765625 17.195312 -1.019531 15.15625 0.1875 C 14.070312 0.78125 13.050781 1.019531 12.09375 0.90625 Z M 16.59375 -64.953125 C 18.15625 -65.910156 21.101562 -68.132812 25.4375 -71.625 C 33.976562 -78.476562 40.171875 -87.738281 44.015625 -99.40625 C 45.097656 -102.289062 45.519531 -105.476562 45.28125 -108.96875 C 45.28125 -110.289062 45.097656 -111.253906 44.734375 -111.859375 C 44.140625 -113.296875 43.238281 -113.65625 42.03125 -112.9375 C 41.070312 -112.332031 39.867188 -111.3125 38.421875 -109.875 C 34.335938 -105.539062 30.734375 -100.488281 27.609375 -94.71875 C 23.515625 -86.78125 19.84375 -77.394531 16.59375 -66.5625 Z M 10.46875 -57.734375 L 11.90625 -57.734375 C 12.382812 -57.734375 12.625 -57.851562 12.625 -58.09375 C 12.75 -58.332031 12.8125 -58.691406 12.8125 -59.171875 C 12.8125 -59.296875 12.507812 -59.359375 11.90625 -59.359375 C 11.0625 -58.753906 10.582031 -58.210938 10.46875 -57.734375 Z M 6.5 -32.296875 C 7.09375 -34.210938 7.453125 -35.414062 7.578125 -35.90625 C 9.503906 -43.84375 10.882812 -49.796875 11.71875 -53.765625 C 11.84375 -54.003906 11.90625 -54.300781 11.90625 -54.65625 C 11.90625 -55.019531 11.722656 -55.320312 11.359375 -55.5625 C 9.921875 -55.925781 9.082031 -55.382812 8.84375 -53.9375 C 8.601562 -52.613281 8.363281 -50.628906 8.125 -47.984375 C 7.28125 -40.410156 6.738281 -35.179688 6.5 -32.296875 Z M 12.984375 -1.796875 L 13.53125 -1.796875 L 14.609375 -2.34375 C 17.140625 -4.03125 18.945312 -7.035156 20.03125 -11.359375 C 18.582031 -10.160156 16.894531 -8.421875 14.96875 -6.140625 C 13.769531 -4.691406 13.050781 -3.488281 12.8125 -2.53125 C 12.8125 -2.164062 12.867188 -1.921875 12.984375 -1.796875 Z M 12.984375 -1.796875 "/></g></g></g><g fill="#000001" fill-opacity="1"><g transform="translate(102.349203, 259.017313)"><g><path d="M 5.765625 -43.109375 C 2.765625 -43.359375 0.90625 -45.046875 0.1875 -48.171875 C 0.0625 -48.890625 0 -49.910156 0 -51.234375 C 0 -54.960938 0.78125 -58.210938 2.34375 -60.984375 C 3.300781 -62.421875 4.082031 -63.378906 4.6875 -63.859375 C 5.65625 -64.585938 6.738281 -64.953125 7.9375 -64.953125 C 9.257812 -64.953125 10.160156 -64.46875 10.640625 -63.5 C 11.359375 -62.414062 11.238281 -61.273438 10.28125 -60.078125 C 8.113281 -57.785156 6.070312 -56.398438 4.15625 -55.921875 C 2.832031 -55.679688 2.046875 -54.722656 1.796875 -53.046875 C 1.554688 -50.992188 1.738281 -49.304688 2.34375 -47.984375 C 3.0625 -46.179688 4.203125 -45.160156 5.765625 -44.921875 C 10.222656 -44.441406 16.238281 -47.988281 23.8125 -55.5625 L 25.4375 -57.1875 C 25.800781 -57.1875 26.039062 -57.128906 26.15625 -57.015625 C 26.28125 -56.765625 26.34375 -56.582031 26.34375 -56.46875 C 26.34375 -56.101562 26.222656 -55.800781 25.984375 -55.5625 C 23.335938 -52.4375 19.9375 -49.550781 15.78125 -46.90625 C 11.632812 -44.257812 8.296875 -42.992188 5.765625 -43.109375 Z M 3.25 -58.265625 C 5.769531 -59.472656 7.453125 -60.675781 8.296875 -61.875 C 8.535156 -62 8.535156 -62.179688 8.296875 -62.421875 C 8.296875 -62.660156 8.113281 -62.78125 7.75 -62.78125 C 7.03125 -63.019531 6.367188 -62.835938 5.765625 -62.234375 C 4.441406 -61.148438 3.601562 -59.828125 3.25 -58.265625 Z M 3.25 -58.265625 "/></g></g></g><g fill="#000001" fill-opacity="1"><g transform="translate(125.078583, 259.017313)"><g><path d="M 21.46875 -49.609375 C 18.820312 -48.890625 17.316406 -49.910156 16.953125 -52.671875 C 16.835938 -54.117188 16.957031 -55.742188 17.3125 -57.546875 C 17.5625 -58.867188 17.625 -59.710938 17.5 -60.078125 C 17.257812 -60.078125 17.019531 -60.015625 16.78125 -59.890625 C 16.539062 -59.773438 16.359375 -59.65625 16.234375 -59.53125 C 16.117188 -59.414062 15.96875 -59.265625 15.78125 -59.078125 C 15.601562 -58.898438 15.453125 -58.75 15.328125 -58.625 C 12.566406 -56.226562 10.039062 -54.488281 7.75 -53.40625 C 6.914062 -52.914062 6.078125 -52.492188 5.234375 -52.140625 C 4.023438 -51.773438 3.085938 -51.894531 2.421875 -52.5 C 1.765625 -53.101562 1.554688 -54.003906 1.796875 -55.203125 C 1.796875 -55.441406 1.921875 -55.921875 2.171875 -56.640625 C 2.890625 -58.328125 3.96875 -59.710938 5.40625 -60.796875 C 7.9375 -62.597656 10.460938 -62.597656 12.984375 -60.796875 L 13.171875 -60.609375 L 13.34375 -60.609375 C 14.1875 -60.015625 14.910156 -60.015625 15.515625 -60.609375 L 18.9375 -64.046875 C 19.539062 -64.523438 20.019531 -64.582031 20.375 -64.21875 C 20.738281 -63.863281 20.800781 -63.566406 20.5625 -63.328125 C 20.445312 -62.359375 20.148438 -60.914062 19.671875 -59 C 19.066406 -56.707031 18.820312 -54.597656 18.9375 -52.671875 C 19.0625 -51.710938 19.664062 -51.296875 20.75 -51.421875 C 22.550781 -51.660156 27.359375 -53.644531 35.171875 -57.375 C 35.660156 -57.375 35.960938 -57.253906 36.078125 -57.015625 C 36.316406 -56.410156 36.015625 -55.867188 35.171875 -55.390625 C 28.921875 -52.253906 24.351562 -50.328125 21.46875 -49.609375 Z M 6.140625 -54.484375 C 7.460938 -54.960938 8.84375 -55.625 10.28125 -56.46875 C 11.125 -57.070312 11.601562 -57.550781 11.71875 -57.90625 C 11.84375 -58.144531 11.691406 -58.351562 11.265625 -58.53125 C 10.847656 -58.71875 10.335938 -58.8125 9.734375 -58.8125 C 8.773438 -58.570312 8.054688 -58.332031 7.578125 -58.09375 C 6.128906 -57.007812 5.164062 -55.863281 4.6875 -54.65625 C 5.289062 -54.175781 5.773438 -54.117188 6.140625 -54.484375 Z M 6.140625 -54.484375 "/></g></g></g><g fill="#000001" fill-opacity="1"><g transform="translate(157.549134, 259.017313)"><g><path d="M 8.65625 -47.984375 C 5.40625 -46.066406 3.179688 -46.96875 1.984375 -50.6875 C 1.859375 -51.175781 1.796875 -51.898438 1.796875 -52.859375 C 1.796875 -55.265625 2.519531 -57.488281 3.96875 -59.53125 C 4.445312 -60.25 4.988281 -60.671875 5.59375 -60.796875 C 7.03125 -61.035156 7.75 -60.554688 7.75 -59.359375 C 7.75 -59.234375 7.6875 -58.8125 7.5625 -58.09375 C 7.445312 -57.375 7.332031 -56.832031 7.21875 -56.46875 C 6.851562 -55.144531 6.671875 -53.757812 6.671875 -52.3125 C 6.671875 -50.507812 7.515625 -49.96875 9.203125 -50.6875 C 11.367188 -51.894531 12.929688 -52.800781 13.890625 -53.40625 C 15.097656 -54.238281 17.144531 -56.101562 20.03125 -59 C 20.988281 -59.957031 22.191406 -61.28125 23.640625 -62.96875 C 24.710938 -63.6875 25.492188 -63.984375 25.984375 -63.859375 C 26.460938 -63.617188 26.820312 -62.898438 27.0625 -61.703125 C 27.0625 -60.378906 27.117188 -59.414062 27.234375 -58.8125 C 27.484375 -56.882812 27.726562 -55.441406 27.96875 -54.484375 C 28.925781 -51.597656 30.847656 -50.515625 33.734375 -51.234375 C 34.691406 -51.472656 36.015625 -52.078125 37.703125 -53.046875 L 43.65625 -56.46875 C 44.019531 -56.707031 44.5625 -56.945312 45.28125 -57.1875 C 45.40625 -57.3125 45.523438 -57.34375 45.640625 -57.28125 C 45.765625 -57.21875 45.828125 -57.128906 45.828125 -57.015625 C 46.066406 -56.765625 46.066406 -56.460938 45.828125 -56.109375 L 45.28125 -55.5625 C 41.914062 -53.28125 38.910156 -51.535156 36.265625 -50.328125 C 34.578125 -49.609375 33.3125 -49.25 32.46875 -49.25 C 29.945312 -49.007812 28.082031 -50.03125 26.875 -52.3125 C 26.039062 -53.757812 25.625 -55.144531 25.625 -56.46875 C 25.5 -57.1875 25.4375 -58.269531 25.4375 -59.71875 C 25.4375 -60.5625 25.253906 -61.039062 24.890625 -61.15625 C 24.535156 -61.394531 23.9375 -61.09375 23.09375 -60.25 L 18.578125 -55.75 C 16.898438 -53.820312 13.894531 -51.414062 9.5625 -48.53125 C 9.4375 -48.40625 9.132812 -48.222656 8.65625 -47.984375 Z M 8.65625 -47.984375 "/></g></g></g><g fill="#000001" fill-opacity="1"><g transform="translate(199.941233, 259.017313)"><g><path d="M 80.28125 -101.03125 C 80.40625 -101.03125 80.46875 -100.96875 80.46875 -100.84375 C 80.46875 -100.726562 80.40625 -100.671875 80.28125 -100.671875 L 79.5625 -99.9375 C 76.914062 -98.5 74.507812 -97.476562 72.34375 -96.875 C 67.53125 -95.789062 61.878906 -95.25 55.390625 -95.25 C 53.828125 -95.25 47.601562 -95.304688 36.71875 -95.421875 C 25.832031 -95.546875 19.066406 -95.609375 16.421875 -95.609375 L 13.171875 -95.609375 C 11.242188 -88.160156 10.222656 -84.132812 10.109375 -83.53125 C 7.210938 -71.5 5.40625 -58.328125 4.6875 -44.015625 C 4.445312 -40.410156 4.6875 -37.046875 5.40625 -33.921875 C 5.894531 -31.753906 6.378906 -30.25 6.859375 -29.40625 C 7.941406 -26.757812 9.863281 -26.035156 12.625 -27.234375 C 13.101562 -27.484375 13.828125 -27.96875 14.796875 -28.6875 C 17.796875 -30.726562 20.5 -33.375 22.90625 -36.625 C 25.789062 -40.46875 30.003906 -46.359375 35.546875 -54.296875 C 36.984375 -56.109375 37.941406 -57.070312 38.421875 -57.1875 C 38.546875 -56.707031 38.578125 -56.40625 38.515625 -56.28125 C 38.453125 -56.164062 38.148438 -55.71875 37.609375 -54.9375 C 37.066406 -54.15625 36.738281 -53.703125 36.625 -53.578125 C 32.175781 -47.203125 27.601562 -41.007812 22.90625 -35 C 20.5 -31.988281 18.097656 -29.523438 15.703125 -27.609375 C 14.734375 -26.765625 13.707031 -26.101562 12.625 -25.625 C 10.101562 -24.050781 7.757812 -24.585938 5.59375 -27.234375 C 4.875 -28.078125 4.210938 -29.34375 3.609375 -31.03125 C 2.398438 -34.632812 1.796875 -38.539062 1.796875 -42.75 C 1.554688 -52.257812 2.160156 -61.460938 3.609375 -70.359375 C 4.691406 -77.929688 6.375 -86.347656 8.65625 -95.609375 C -0.84375 -95.609375 -10.820312 -95.066406 -21.28125 -93.984375 C -26.695312 -93.503906 -30.726562 -92.84375 -33.375 -92 C -36.257812 -90.925781 -38.003906 -89.785156 -38.609375 -88.578125 C -38.609375 -88.460938 -38.785156 -88.40625 -39.140625 -88.40625 C -39.503906 -88.757812 -39.6875 -89.054688 -39.6875 -89.296875 C -39.8125 -90.023438 -39.507812 -90.75 -38.78125 -91.46875 C -37.945312 -92.1875 -36.804688 -92.785156 -35.359375 -93.265625 C -32.953125 -94.234375 -29.765625 -94.957031 -25.796875 -95.4375 C -14.609375 -96.757812 -3.960938 -97.421875 6.140625 -97.421875 L 9.015625 -97.421875 C 9.015625 -97.773438 9.101562 -98.3125 9.28125 -99.03125 C 9.46875 -99.757812 9.617188 -100.363281 9.734375 -100.84375 C 11.898438 -108.90625 15.269531 -118.164062 19.84375 -128.625 C 20.082031 -128.988281 20.378906 -129.59375 20.734375 -130.4375 C 21.097656 -131.28125 21.40625 -131.941406 21.65625 -132.421875 L 22.546875 -134.046875 C 23.273438 -135.242188 24.054688 -135.660156 24.890625 -135.296875 C 25.734375 -134.941406 25.976562 -134.101562 25.625 -132.78125 C 25.5 -131.9375 25.195312 -130.789062 24.71875 -129.34375 C 24.238281 -128.019531 23.546875 -126.15625 22.640625 -123.75 C 21.734375 -121.351562 21.101562 -119.734375 20.75 -118.890625 C 18.101562 -112.035156 16 -105.898438 14.4375 -100.484375 L 13.53125 -97.234375 C 26.519531 -96.992188 36.019531 -96.875 42.03125 -96.875 C 43.59375 -96.875 46.023438 -96.8125 49.328125 -96.6875 C 52.640625 -96.570312 55.140625 -96.515625 56.828125 -96.515625 C 60.316406 -96.515625 64.585938 -96.9375 69.640625 -97.78125 C 72.160156 -98.382812 74.984375 -99.40625 78.109375 -100.84375 L 79.734375 -101.390625 C 79.859375 -101.390625 80.039062 -101.269531 80.28125 -101.03125 Z M 80.28125 -101.03125 "/></g></g></g><g fill="#000001" fill-opacity="1"><g transform="translate(234.396088, 259.017313)"><g><path d="M 5.59375 -65.3125 C 5.226562 -65.3125 4.957031 -65.367188 4.78125 -65.484375 C 4.601562 -65.609375 4.570312 -65.789062 4.6875 -66.03125 C 4.925781 -68.195312 5.53125 -70 6.5 -71.4375 C 6.5 -71.5625 6.796875 -71.625 7.390625 -71.625 C 7.515625 -71.625 7.757812 -71.441406 8.125 -71.078125 C 8.238281 -70.835938 8.296875 -70.476562 8.296875 -70 C 7.691406 -67.832031 7.269531 -66.566406 7.03125 -66.203125 C 6.675781 -65.609375 6.195312 -65.3125 5.59375 -65.3125 Z M 5.046875 -46.359375 C 2.285156 -47.203125 0.90625 -49.066406 0.90625 -51.953125 C 0.90625 -53.878906 1.328125 -55.625 2.171875 -57.1875 C 2.523438 -57.90625 3.125 -58.207031 3.96875 -58.09375 C 4.8125 -57.851562 5.234375 -57.3125 5.234375 -56.46875 L 5.234375 -54.484375 C 5.234375 -54.003906 5.171875 -53.582031 5.046875 -53.21875 L 5.046875 -52.671875 C 4.929688 -51.347656 5.265625 -50.296875 6.046875 -49.515625 C 6.828125 -48.734375 7.878906 -48.34375 9.203125 -48.34375 C 10.160156 -48.34375 11.363281 -48.644531 12.8125 -49.25 C 14.976562 -50.09375 17.441406 -51.597656 20.203125 -53.765625 L 24.53125 -57.015625 C 25.132812 -57.367188 25.554688 -57.488281 25.796875 -57.375 C 26.035156 -57.375 26.15625 -57.191406 26.15625 -56.828125 C 26.15625 -56.460938 26.035156 -56.28125 25.796875 -56.28125 C 20.390625 -51.832031 15.941406 -48.769531 12.453125 -47.09375 C 9.921875 -45.882812 7.453125 -45.640625 5.046875 -46.359375 Z M 5.046875 -46.359375 "/></g></g></g><g fill="#000001" fill-opacity="1"><g transform="translate(256.945075, 259.017313)"><g><path d="M 42.390625 -57.015625 L 42.390625 -56.46875 C 41.546875 -55.988281 40.40625 -55.75 38.96875 -55.75 C 32.59375 -55.507812 21.769531 -52.921875 6.5 -47.984375 C 5.414062 -47.503906 4.8125 -46.960938 4.6875 -46.359375 C 4.6875 -45.640625 5.171875 -45.039062 6.140625 -44.5625 C 9.617188 -43.351562 12.742188 -40.644531 15.515625 -36.4375 C 17.441406 -33.070312 18.101562 -29.222656 17.5 -24.890625 C 17.5 -24.535156 17.378906 -23.992188 17.140625 -23.265625 C 15.816406 -19.660156 13.410156 -18.582031 9.921875 -20.03125 C 8.472656 -20.625 7.085938 -21.882812 5.765625 -23.8125 C 3.367188 -27.539062 1.804688 -31.507812 1.078125 -35.71875 L 0.1875 -42.578125 C 0.1875 -43.660156 -0.414062 -44.257812 -1.625 -44.375 L -4.15625 -44.375 C -4.988281 -44.613281 -5.40625 -44.914062 -5.40625 -45.28125 C -5.40625 -45.882812 -4.988281 -46.304688 -4.15625 -46.546875 C -3.90625 -46.546875 -3.421875 -46.601562 -2.703125 -46.71875 C -1.984375 -46.84375 -1.410156 -46.992188 -0.984375 -47.171875 C -0.566406 -47.359375 -0.238281 -47.691406 0 -48.171875 C 0.238281 -48.523438 0.390625 -48.941406 0.453125 -49.421875 C 0.515625 -49.910156 0.546875 -50.453125 0.546875 -51.046875 C 0.546875 -51.648438 0.546875 -52.070312 0.546875 -52.3125 C 1.378906 -60.976562 2.757812 -68.316406 4.6875 -74.328125 C 6.25 -79.015625 8.175781 -83.164062 10.46875 -86.78125 C 13.113281 -90.75 16.898438 -93.992188 21.828125 -96.515625 C 23.035156 -97.117188 24.359375 -97.539062 25.796875 -97.78125 C 27.597656 -98.019531 29.191406 -97.65625 30.578125 -96.6875 C 31.960938 -95.726562 32.832031 -94.410156 33.1875 -92.734375 C 33.3125 -92.367188 33.429688 -91.820312 33.546875 -91.09375 C 33.671875 -90.375 33.734375 -89.957031 33.734375 -89.84375 C 33.492188 -85.632812 32.113281 -81.242188 29.59375 -76.671875 C 27.425781 -72.703125 23.816406 -68.550781 18.765625 -64.21875 C 14.191406 -60.613281 10.34375 -57.910156 7.21875 -56.109375 C 5.894531 -55.265625 5.171875 -54.117188 5.046875 -52.671875 C 4.804688 -51.109375 4.835938 -50.175781 5.140625 -49.875 C 5.441406 -49.582031 6.4375 -49.675781 8.125 -50.15625 C 8.71875 -50.269531 10.546875 -50.835938 13.609375 -51.859375 C 16.679688 -52.890625 19.300781 -53.734375 21.46875 -54.390625 C 23.632812 -55.054688 26.550781 -55.71875 30.21875 -56.375 C 33.882812 -57.039062 37.398438 -57.429688 40.765625 -57.546875 C 41.492188 -57.546875 42.035156 -57.488281 42.390625 -57.375 Z M 8.296875 -70.90625 C 6.859375 -65.363281 6.078125 -61.148438 5.953125 -58.265625 L 5.953125 -57.546875 L 6.859375 -58.265625 C 14.796875 -63.316406 20.925781 -68.609375 25.25 -74.140625 C 27.894531 -77.390625 29.757812 -81.117188 30.84375 -85.328125 C 31.570312 -87.492188 31.753906 -89.660156 31.390625 -91.828125 C 30.785156 -94.585938 29.101562 -95.847656 26.34375 -95.609375 C 24.78125 -95.609375 23.335938 -95.128906 22.015625 -94.171875 C 18.285156 -92.003906 15.578125 -89.238281 13.890625 -85.875 C 11.847656 -81.90625 9.984375 -76.914062 8.296875 -70.90625 Z M 4.875 -42.75 C 4.507812 -40.945312 4.6875 -38.484375 5.40625 -35.359375 C 6.132812 -31.390625 7.457031 -27.84375 9.375 -24.71875 C 10.101562 -23.394531 11.066406 -22.492188 12.265625 -22.015625 C 13.472656 -21.648438 14.4375 -22.007812 15.15625 -23.09375 C 15.632812 -24.175781 15.992188 -25.4375 16.234375 -26.875 C 16.597656 -30.125 15.664062 -33.34375 13.4375 -36.53125 C 11.21875 -39.71875 8.722656 -41.789062 5.953125 -42.75 Z M 4.875 -42.75 "/></g></g></g><g fill="#000001" fill-opacity="1"><g transform="translate(295.729353, 259.017313)"><g><path d="M 0.1875 29.953125 C -1.382812 30.191406 -2.679688 29.890625 -3.703125 29.046875 C -4.722656 28.203125 -5.289062 27 -5.40625 25.4375 C -5.40625 23.75 -5.226562 22.1875 -4.875 20.75 C -4.03125 16.78125 -2.644531 12.8125 -0.71875 8.84375 C 2.644531 1.863281 7.632812 -6.070312 14.25 -14.96875 C 17.257812 -19.0625 22.007812 -24.957031 28.5 -32.65625 C 29.707031 -34.09375 30.488281 -35.65625 30.84375 -37.34375 C 30.96875 -37.820312 31.875 -44.015625 33.5625 -55.921875 C 33.675781 -56.765625 33.882812 -57.96875 34.1875 -59.53125 C 34.488281 -61.09375 34.695312 -62.238281 34.8125 -62.96875 C 34.8125 -64.289062 34.753906 -65.007812 34.640625 -65.125 C 34.398438 -65.125 33.617188 -64.644531 32.296875 -63.6875 C 29.285156 -60.914062 25.914062 -57.304688 22.1875 -52.859375 C 18.457031 -48.765625 15.210938 -45.578125 12.453125 -43.296875 C 11.003906 -42.097656 9.679688 -41.253906 8.484375 -40.765625 C 4.515625 -39.203125 2.046875 -40.46875 1.078125 -44.5625 C 0.117188 -47.925781 0.484375 -52.015625 2.171875 -56.828125 C 2.285156 -57.066406 2.644531 -57.488281 3.25 -58.09375 C 3.601562 -58.332031 4.019531 -58.359375 4.5 -58.171875 C 4.988281 -57.992188 5.289062 -57.726562 5.40625 -57.375 L 5.59375 -55.5625 C 5.46875 -54.476562 5.40625 -52.492188 5.40625 -49.609375 L 5.40625 -46.71875 C 5.53125 -44.4375 6.734375 -43.71875 9.015625 -44.5625 C 10.222656 -45.039062 11.664062 -45.941406 13.34375 -47.265625 C 14.789062 -48.347656 16.835938 -50.210938 19.484375 -52.859375 C 21.410156 -54.898438 24.414062 -57.96875 28.5 -62.0625 C 29.34375 -63.019531 30.726562 -64.34375 32.65625 -66.03125 C 32.769531 -66.144531 33.367188 -66.566406 34.453125 -67.296875 C 35.535156 -67.773438 36.195312 -67.410156 36.4375 -66.203125 L 36.4375 -65.125 C 36.4375 -63.320312 36.316406 -62 36.078125 -61.15625 C 35.597656 -57.425781 34.578125 -50.507812 33.015625 -40.40625 C 32.890625 -40.164062 32.828125 -39.804688 32.828125 -39.328125 C 32.828125 -38.847656 32.828125 -38.546875 32.828125 -38.421875 C 33.429688 -38.304688 34.09375 -38.609375 34.8125 -39.328125 C 39.625 -44.140625 45.21875 -49.429688 51.59375 -55.203125 L 53.765625 -56.828125 C 54.117188 -56.953125 54.359375 -56.890625 54.484375 -56.640625 L 54.484375 -56.109375 L 53.40625 -55.03125 C 51.84375 -53.457031 50.640625 -52.3125 49.796875 -51.59375 C 44.015625 -46.539062 38.84375 -41.671875 34.28125 -36.984375 C 32.71875 -35.421875 31.753906 -33.554688 31.390625 -31.390625 C 28.984375 -18.398438 26.335938 -7.695312 23.453125 0.71875 C 21.648438 5.894531 20.023438 9.925781 18.578125 12.8125 C 16.773438 16.539062 14.191406 20.148438 10.828125 23.640625 C 8.296875 26.160156 5.769531 27.960938 3.25 29.046875 C 2.164062 29.523438 1.144531 29.828125 0.1875 29.953125 Z M 0.546875 28.140625 L 3.25 27.0625 C 5.53125 25.976562 7.453125 24.535156 9.015625 22.734375 C 12.390625 19.242188 14.976562 15.632812 16.78125 11.90625 C 19.0625 7.21875 20.804688 3.007812 22.015625 -0.71875 C 24.421875 -7.457031 26.765625 -16.71875 29.046875 -28.5 C 29.285156 -29.582031 29.285156 -30.363281 29.046875 -30.84375 C 28.679688 -30.726562 28.378906 -30.578125 28.140625 -30.390625 C 27.898438 -30.210938 27.660156 -29.941406 27.421875 -29.578125 C 27.179688 -29.222656 27 -28.984375 26.875 -28.859375 L 18.046875 -18.046875 C 11.429688 -9.503906 5.957031 -1.144531 1.625 7.03125 C -0.78125 11.601562 -2.460938 16.054688 -3.421875 20.390625 C -3.785156 21.828125 -3.96875 23.269531 -3.96875 24.71875 C -3.84375 27.601562 -2.335938 28.742188 0.546875 28.140625 Z M 0.546875 28.140625 "/></g></g></g><g clip-path="url(#d4eb165ef3)"><g clip-path="url(#629927772f)"><g clip-path="url(#16bcafc20e)"><path fill="#d14d72" d="M 246.125 182.003906 C 247.398438 181.347656 248.457031 180.589844 249.644531 180.234375 C 252.671875 179.335938 254.105469 180.320312 254.464844 183.523438 C 254.601562 184.730469 254.078125 186.25 253.328125 187.230469 C 251.917969 189.074219 250.289062 190.75 248.484375 192.222656 C 246.066406 194.191406 243.566406 196.105469 240.449219 197.65625 C 239.902344 196.675781 239.199219 195.890625 239.023438 195.015625 C 238.25 191.128906 237.359375 187.230469 237.65625 183.246094 C 237.757812 181.925781 238.105469 180.601562 238.5 179.332031 C 238.851562 178.214844 239.417969 177.039062 240.769531 176.902344 C 242.269531 176.75 243.335938 177.664062 244.128906 178.863281 C 244.78125 179.847656 245.398438 180.855469 246.125 182.003906 " fill-opacity="1" fill-rule="nonzero"/></g></g></g><g fill="#d14d72" fill-opacity="1"><g transform="translate(72.200815, 254.742823)"><g><path d="M 4.894531 -5.957031 C 6.53125 -5.566406 7.648438 -5.136719 8.246094 -4.652344 C 8.65625 -4.316406 8.859375 -3.890625 8.859375 -3.367188 C 8.859375 -2.847656 8.746094 -2.417969 8.523438 -2.121094 C 7.964844 -1.339844 6.960938 -0.949219 5.546875 -0.949219 C 3.574219 -0.949219 2.457031 -1.621094 2.214844 -2.960938 L 0.6875 -2.960938 C 1.136719 -0.820312 2.753906 0.242188 5.546875 0.242188 C 6.792969 0.242188 7.835938 -0.0195312 8.671875 -0.578125 C 9.679688 -1.226562 10.199219 -2.195312 10.199219 -3.460938 C 10.199219 -4.503906 9.789062 -5.304688 8.972656 -5.863281 C 8.394531 -6.273438 7.464844 -6.644531 6.179688 -6.980469 C 4.875 -7.3125 4.039062 -7.59375 3.648438 -7.796875 C 2.792969 -8.226562 2.363281 -8.820312 2.382812 -9.605469 C 2.382812 -10.011719 2.457031 -10.367188 2.644531 -10.628906 C 3.125 -11.351562 3.984375 -11.726562 5.210938 -11.726562 C 6.941406 -11.726562 7.929688 -11.167969 8.1875 -10.085938 L 9.605469 -10.085938 C 9.136719 -11.910156 7.667969 -12.84375 5.210938 -12.84375 C 4.09375 -12.84375 3.109375 -12.542969 2.289062 -11.949219 C 1.453125 -11.351562 1.023438 -10.476562 1.023438 -9.289062 C 1.023438 -7.667969 2.328125 -6.550781 4.894531 -5.957031 Z M 4.894531 -5.957031 "/></g></g></g><g fill="#d14d72" fill-opacity="1"><g transform="translate(87.629187, 254.742823)"><g><path d="M 3.441406 -4.652344 L 5.75 -10.476562 L 8.039062 -4.652344 Z M 11.296875 0 L 5.75 -13.53125 L 0.1875 0 L 1.601562 0 L 2.960938 -3.441406 L 8.523438 -3.441406 L 9.882812 0 Z M 11.296875 0 "/></g></g></g><g fill="#d14d72" fill-opacity="1"><g transform="translate(103.857647, 254.742823)"><g><path d="M 2.699219 -1.304688 L 2.699219 -12.65625 L 1.394531 -12.65625 L 1.394531 0 L 7.222656 0 L 7.222656 -1.304688 Z M 2.699219 -1.304688 "/></g></g></g><g fill="#d14d72" fill-opacity="1"><g transform="translate(116.197282, 254.742823)"><g><path d="M 12.542969 -6.363281 C 12.542969 -4.914062 12.023438 -3.683594 11.019531 -2.679688 C 9.996094 -1.65625 8.765625 -1.152344 7.332031 -1.152344 C 5.898438 -1.152344 4.671875 -1.65625 3.667969 -2.679688 C 2.644531 -3.683594 2.140625 -4.914062 2.140625 -6.363281 C 2.140625 -7.78125 2.644531 -9.007812 3.667969 -10.03125 C 4.671875 -11.035156 5.898438 -11.558594 7.332031 -11.558594 C 8.765625 -11.558594 9.996094 -11.035156 11.019531 -10.03125 C 12.023438 -9.007812 12.542969 -7.78125 12.542969 -6.363281 Z M 13.847656 -6.363281 C 13.847656 -7.257812 13.660156 -8.097656 13.324219 -8.894531 C 12.992188 -9.679688 12.527344 -10.367188 11.929688 -10.960938 C 11.335938 -11.539062 10.644531 -12.003906 9.863281 -12.339844 C 9.0625 -12.675781 8.226562 -12.859375 7.332031 -12.859375 C 6.441406 -12.859375 5.582031 -12.675781 4.800781 -12.339844 C 4.019531 -12.003906 3.332031 -11.539062 2.734375 -10.960938 C 2.140625 -10.367188 1.675781 -9.679688 1.339844 -8.894531 C 1.003906 -8.097656 0.835938 -7.257812 0.835938 -6.363281 C 0.835938 -5.472656 1.003906 -4.617188 1.339844 -3.832031 C 1.675781 -3.035156 2.140625 -2.34375 2.734375 -1.75 C 3.332031 -1.152344 4.019531 -0.6875 4.800781 -0.355469 C 5.582031 -0.0195312 6.441406 0.148438 7.332031 0.148438 C 8.226562 0.148438 9.0625 -0.0195312 9.863281 -0.355469 C 10.644531 -0.6875 11.335938 -1.152344 11.929688 -1.75 C 12.527344 -2.34375 12.992188 -3.035156 13.324219 -3.832031 C 13.660156 -4.617188 13.847656 -5.472656 13.847656 -6.363281 Z M 9.902344 -16.621094 L 8.300781 -16.621094 L 6.8125 -13.957031 L 7.855469 -13.957031 Z M 9.902344 -16.621094 "/></g></g></g><g fill="#d14d72" fill-opacity="1"><g transform="translate(135.626119, 254.742823)"><g><path d="M 2.699219 -9.324219 L 9.808594 0.78125 L 9.808594 -12.65625 L 8.503906 -12.65625 L 8.503906 -3.351562 L 1.394531 -13.457031 L 1.394531 0 L 2.699219 0 Z M 2.699219 -9.324219 "/></g></g></g><g fill="#d14d72" fill-opacity="1"><g transform="translate(151.575472, 254.742823)"><g/></g></g><g fill="#d14d72" fill-opacity="1"><g transform="translate(161.347371, 254.742823)"><g><path d="M 11.222656 -6.328125 C 11.222656 -7.238281 11.035156 -8.078125 10.703125 -8.859375 C 10.367188 -9.640625 9.902344 -10.3125 9.324219 -10.867188 C 8.730469 -11.425781 8.039062 -11.855469 7.257812 -12.171875 C 6.457031 -12.488281 5.601562 -12.65625 4.707031 -12.65625 L 1.394531 -12.65625 L 1.394531 0 L 4.707031 0 C 5.601562 0 6.457031 -0.148438 7.257812 -0.464844 C 8.039062 -0.78125 8.730469 -1.226562 9.324219 -1.785156 C 9.902344 -2.34375 10.367188 -2.996094 10.703125 -3.777344 C 11.035156 -4.558594 11.222656 -5.398438 11.222656 -6.328125 Z M 9.957031 -6.328125 C 9.957031 -4.875 9.4375 -3.667969 8.429688 -2.71875 C 7.425781 -1.769531 6.199219 -1.304688 4.746094 -1.304688 L 2.699219 -1.304688 L 2.699219 -11.351562 L 4.746094 -11.351562 C 6.199219 -11.351562 7.425781 -10.867188 8.429688 -9.9375 C 9.4375 -8.972656 9.957031 -7.761719 9.957031 -6.328125 Z M 9.957031 -6.328125 "/></g></g></g><g fill="#d14d72" fill-opacity="1"><g transform="translate(178.152643, 254.742823)"><g><path d="M 8.914062 0 L 8.914062 -1.210938 L 2.699219 -1.210938 L 2.699219 -5.714844 L 8.730469 -5.714844 L 8.730469 -6.941406 L 2.699219 -6.941406 L 2.699219 -11.445312 L 8.914062 -11.445312 L 8.914062 -12.65625 L 1.394531 -12.65625 L 1.394531 0 Z M 8.914062 0 "/></g></g></g><g fill="#d14d72" fill-opacity="1"><g transform="translate(193.208885, 254.742823)"><g/></g></g><g fill="#d14d72" fill-opacity="1"><g transform="translate(202.980784, 254.742823)"><g><path d="M 9.660156 -3.515625 C 9.660156 -4.410156 9.4375 -5.175781 9.007812 -5.769531 C 8.5625 -6.363281 7.964844 -6.773438 7.238281 -6.980469 C 7.667969 -7.164062 8.039062 -7.5 8.320312 -8.003906 C 8.449219 -8.226562 8.542969 -8.449219 8.617188 -8.691406 C 8.691406 -8.933594 8.730469 -9.269531 8.730469 -9.695312 C 8.730469 -10.105469 8.617188 -10.535156 8.429688 -10.945312 C 7.871094 -12.078125 6.664062 -12.65625 4.820312 -12.65625 L 1.394531 -12.65625 L 1.394531 0 L 5.265625 0 C 6.550781 0 7.574219 -0.277344 8.355469 -0.875 C 8.746094 -1.171875 9.0625 -1.5625 9.304688 -2.046875 C 9.527344 -2.511719 9.660156 -2.996094 9.660156 -3.515625 Z M 7.425781 -9.492188 C 7.425781 -8.804688 7.222656 -8.300781 6.8125 -7.964844 C 6.402344 -7.628906 5.863281 -7.464844 5.191406 -7.464844 L 2.699219 -7.464844 L 2.699219 -11.410156 L 4.820312 -11.410156 C 6.550781 -11.410156 7.425781 -10.757812 7.425781 -9.492188 Z M 8.355469 -3.777344 C 8.355469 -3.015625 8.097656 -2.402344 7.574219 -1.9375 C 7.074219 -1.46875 6.421875 -1.246094 5.640625 -1.246094 L 2.699219 -1.246094 L 2.699219 -6.160156 L 5.84375 -6.160156 C 6.496094 -6.160156 7.074219 -5.9375 7.574219 -5.492188 C 7.796875 -5.285156 7.984375 -5.042969 8.132812 -4.765625 C 8.28125 -4.464844 8.355469 -4.148438 8.355469 -3.777344 Z M 8.355469 -3.777344 "/></g></g></g><g fill="#d14d72" fill-opacity="1"><g transform="translate(217.757918, 254.742823)"><g><path d="M 8.914062 0 L 8.914062 -1.210938 L 2.699219 -1.210938 L 2.699219 -5.714844 L 8.730469 -5.714844 L 8.730469 -6.941406 L 2.699219 -6.941406 L 2.699219 -11.445312 L 8.914062 -11.445312 L 8.914062 -12.65625 L 1.394531 -12.65625 L 1.394531 0 Z M 8.914062 0 "/></g></g></g><g fill="#d14d72" fill-opacity="1"><g transform="translate(232.81416, 254.742823)"><g><path d="M 2.699219 -1.304688 L 2.699219 -12.65625 L 1.394531 -12.65625 L 1.394531 0 L 7.222656 0 L 7.222656 -1.304688 Z M 2.699219 -1.304688 "/></g></g></g><g fill="#d14d72" fill-opacity="1"><g transform="translate(245.153795, 254.742823)"><g><path d="M 2.699219 -1.304688 L 2.699219 -12.65625 L 1.394531 -12.65625 L 1.394531 0 L 7.222656 0 L 7.222656 -1.304688 Z M 2.699219 -1.304688 "/></g></g></g><g fill="#d14d72" fill-opacity="1"><g transform="translate(257.49342, 254.742823)"><g><path d="M 8.914062 0 L 8.914062 -1.210938 L 2.699219 -1.210938 L 2.699219 -5.714844 L 8.730469 -5.714844 L 8.730469 -6.941406 L 2.699219 -6.941406 L 2.699219 -11.445312 L 8.914062 -11.445312 L 8.914062 -12.65625 L 1.394531 -12.65625 L 1.394531 0 Z M 8.914062 0 "/></g></g></g><g fill="#d14d72" fill-opacity="1"><g transform="translate(272.549671, 254.742823)"><g><path d="M 2.828125 -1.210938 L 10.328125 -12.65625 L 0.855469 -12.65625 L 0.855469 -11.445312 L 7.964844 -11.445312 L 0.464844 0 L 10.011719 0 L 10.011719 -1.210938 Z M 2.828125 -1.210938 "/></g></g></g><g fill="#d14d72" fill-opacity="1"><g transform="translate(288.089672, 254.742823)"><g><path d="M 3.441406 -4.652344 L 5.75 -10.476562 L 8.039062 -4.652344 Z M 11.296875 0 L 5.75 -13.53125 L 0.1875 0 L 1.601562 0 L 2.960938 -3.441406 L 8.523438 -3.441406 L 9.882812 0 Z M 11.296875 0 "/></g></g></g></svg>