<?xml version="1.0" encoding="utf-8"?>
<!-- Generator: Adobe Illustrator 24.1.0, SVG Export Plug-In . SVG Version: 6.00 Build 0)  -->
<svg version="1.1" id="Capa_1" xmlns="http://www.w3.org/2000/svg" xmlns:xlink="http://www.w3.org/1999/xlink" x="0px" y="0px"
	 viewBox="0 0 800 800" style="enable-background:new 0 0 800 800;" xml:space="preserve">
<style type="text/css">
	.st0{fill:#FFFFFF;}
	.st1{fill-rule:evenodd;clip-rule:evenodd;fill:#428A54;}
</style>
<g id="SVGRepo_bgCarrier">
</g>
<g id="SVGRepo_tracerCarrier">
</g>
<g id="SVGRepo_iconCarrier">
	<rect x="213.5" y="220" class="st0" width="355.8" height="355.8"/>
	<path class="st1" d="M122.2,400c0-153.4,124.4-277.8,277.8-277.8c153.4,0,277.8,124.4,277.8,277.8c0,153.4-124.4,277.8-277.8,277.8
		C246.6,677.8,122.2,553.4,122.2,400z M503,324.8c10.8,10.8,10.8,28.4,0,39.3L400.7,466.4c-15.7,15.7-41.2,15.7-56.9,0L297,419.6
		c-10.8-10.8-10.8-28.4,0-39.3c10.8-10.8,28.4-10.8,39.3,0l35.9,35.9l91.5-91.5C474.5,314,492.1,314,503,324.8z"/>
</g>
</svg>
