<svg xmlns="http://www.w3.org/2000/svg" xmlns:xlink="http://www.w3.org/1999/xlink" viewBox="0 0 500 500"><defs><style>.cls-1,.cls-19{fill:#fff;}.cls-2{fill:#ccb6f3;}.cls-3{fill:#e0e0e0;}.cls-4{fill:#e669ad;}.cls-5{fill:#401a4c;}.cls-6{fill:url(#linear-gradient);}.cls-7{fill:url(#linear-gradient-2);}.cls-8{fill:url(#linear-gradient-3);}.cls-11,.cls-9{fill:#e2469a;}.cls-10,.cls-25{fill:none;stroke-miterlimit:10;}.cls-10{stroke:#4b4be3;stroke-width:5.67px;}.cls-11{font-size:79.97px;}.cls-11,.cls-19,.cls-29{font-family:Montserrat-ExtraBold, Montserrat;font-weight:800;}.cls-12{font-size:13.71px;}.cls-12,.cls-20{font-family:Montserrat-Regular, Montserrat;font-weight:400;}.cls-13{letter-spacing:-0.04em;}.cls-14{letter-spacing:-0.01em;}.cls-15{letter-spacing:-0.01em;}.cls-16{letter-spacing:0em;}.cls-17{letter-spacing:-0.01em;}.cls-18{fill:#652687;}.cls-19,.cls-29{font-size:31.72px;}.cls-20{font-size:5.44px;}.cls-21{letter-spacing:-0.05em;}.cls-22{letter-spacing:-0.01em;}.cls-23{letter-spacing:-0.01em;}.cls-24{letter-spacing:-0.01em;}.cls-25{stroke:#ccb6f3;}.cls-26,.cls-29{fill:#2abfd4;}.cls-27{letter-spacing:-0.01em;}.cls-28{fill:#4b4be3;}.cls-30{fill:#25adbf;}.cls-31{fill:#f8cba3;}.cls-32{fill:#29bfd4;}.cls-33{fill:#8049e2;}.cls-34{fill:#75d7e6;}.cls-35{fill:#138494;}</style><linearGradient id="linear-gradient" x1="337.8" y1="181.68" x2="430.76" y2="181.68" gradientUnits="userSpaceOnUse"><stop offset="0" stop-color="#e2469a"/><stop offset="1" stop-color="#e669ad"/></linearGradient><linearGradient id="linear-gradient-2" x1="477.55" y1="347.16" x2="348.07" y2="347.16" gradientUnits="userSpaceOnUse"><stop offset="0" stop-color="#2abfd4"/><stop offset="0.37" stop-color="#14aabc"/><stop offset="0.73" stop-color="#059cab"/><stop offset="1" stop-color="#0097a5"/></linearGradient><linearGradient id="linear-gradient-3" x1="29.25" y1="347.16" x2="158.72" y2="347.16" xlink:href="#linear-gradient-2"/></defs><g id="BACKGROUND"><rect class="cls-1" width="500" height="500"/></g><g id="OBJECTS"><path class="cls-2" d="M47.2,367.17S11.66,265.41,43.94,250,37.23,136.77,99.52,119.39,134.45,27,240.26,57.72,353,5.23,402.49,87.63s26.29,122.6,62.56,134,17.41,114.84-11.61,145.57Z"/><path class="cls-3" d="M464,375.58c0,4.82-94.95,13.09-212.06,13.09S39.89,380.4,39.89,375.58s94.94-8.73,212.06-8.73S464,370.76,464,375.58Z"/><path class="cls-1" d="M206.67,121.1h45.15s.71-8.34-8.92-5.55-3.29-9.43-20.07-8.67C206.21,107.63,197.5,106.88,206.67,121.1Z"/><path class="cls-4" d="M345,205.12c35.7,0,47.61-56.2,31.29-47.27s16-57-12.05-43.93S372.76,73,337.79,73.65s-4.79,48.05-26.2,43,13.37,53.47-7.81,45.56S287,205.12,345,205.12Z"/><path class="cls-5" d="M338.84,78.57l.15,30.86c0,18.51.09,43.19.13,67.88s-.09,49.36-.13,67.88L338.84,276l-.15-30.85c0-18.52-.08-43.2-.13-67.88s.09-49.37.13-67.88Z"/><path class="cls-5" d="M364.39,124a10.11,10.11,0,0,1-.29,1.47c-.09.47-.28,1-.46,1.66a21,21,0,0,1-.79,2.09c-.17.37-.34.76-.52,1.17l-.65,1.2a12.52,12.52,0,0,1-.75,1.25c-.27.41-.54.84-.85,1.25a23.12,23.12,0,0,1-2.09,2.38c-.4.38-.77.78-1.18,1.13l-1.31,1-.66.5-.71.4-1.43.81c-1,.49-2,.83-2.92,1.23s-2,.5-2.87.73a7.36,7.36,0,0,1-1.36.21l-1.27.14a12.56,12.56,0,0,1-2.23.12l-1.72-.05-1.49,0,1.5-.06,1.71-.05a14.32,14.32,0,0,0,2.2-.23l1.25-.18a7,7,0,0,0,1.32-.25c.89-.26,1.84-.49,2.8-.8s1.91-.74,2.84-1.23l1.38-.8.69-.41.64-.49,1.28-1c.41-.35.78-.73,1.16-1.09a21.27,21.27,0,0,0,2.08-2.31c.31-.39.57-.82.86-1.21a12,12,0,0,0,.77-1.19c.24-.4.46-.79.68-1.17l.56-1.13c.37-.72.61-1.43.88-2s.43-1.16.56-1.62A12.89,12.89,0,0,0,364.39,124Z"/><path class="cls-5" d="M337.8,133.31a26.09,26.09,0,0,1-4.05.28,32.38,32.38,0,0,1-4.17-.28,27.21,27.21,0,0,1-4.68-1,19.1,19.1,0,0,1-4.35-2,12.47,12.47,0,0,1-1.77-1.35,12.3,12.3,0,0,1-1.39-1.42,12.76,12.76,0,0,1-1-1.35c-.26-.42-.45-.81-.63-1.12l-.44-1s.19.36.54,1c.2.29.42.66.71,1s.64.82,1.05,1.26a13.08,13.08,0,0,0,1.42,1.32,15.18,15.18,0,0,0,1.76,1.24,19,19,0,0,0,4.26,1.93,27.88,27.88,0,0,0,4.58,1.09c1.49.22,2.9.38,4.11.44A37.5,37.5,0,0,0,337.8,133.31Z"/><path class="cls-5" d="M349.05,98.18a27.39,27.39,0,0,1,.05,3.8,36,36,0,0,1-.4,3.88,27.79,27.79,0,0,1-1.11,4.35,17.11,17.11,0,0,1-.92,2.1,12.82,12.82,0,0,1-1.18,1.89,9.07,9.07,0,0,1-1.42,1.53c-.25.22-.52.41-.76.6l-.78.47a7.89,7.89,0,0,1-1.46.58,11.59,11.59,0,0,1-1.18.25c-.67.05-1.05.06-1.05.06l1-.17a10.27,10.27,0,0,0,1.13-.34,10,10,0,0,0,1.37-.66l.72-.49c.23-.2.48-.38.71-.6a11.51,11.51,0,0,0,1.3-1.52,11.94,11.94,0,0,0,1.1-1.84,18.48,18.48,0,0,0,.86-2,26.33,26.33,0,0,0,1.15-4.25c.26-1.39.46-2.69.57-3.82C349,99.7,349.05,98.18,349.05,98.18Z"/><path class="cls-5" d="M338.84,104.07a3.9,3.9,0,0,1-.61.33c-.2.09-.46.18-.75.28a5.49,5.49,0,0,1-1,.23,5.69,5.69,0,0,1-1.25,0l-.69-.09c-.23-.06-.45-.15-.69-.23a3.84,3.84,0,0,1-.67-.34,3.07,3.07,0,0,1-.62-.45l-.58-.53c-.17-.19-.32-.41-.48-.62a6.58,6.58,0,0,1-.74-1.35,8.6,8.6,0,0,1-.5-1.39c-.07-.23-.14-.45-.2-.68l-.11-.66c-.07-.43-.13-.84-.19-1.21s0-.73-.06-1l0-.8v-.69l.12.68c.07.44.17,1,.3,1.79.08.36.18.76.28,1.17l.15.64.22.64a7.34,7.34,0,0,0,.51,1.32,6.28,6.28,0,0,0,.73,1.25c.14.19.27.4.42.58l.51.49a2.19,2.19,0,0,0,.55.41,2.67,2.67,0,0,0,.59.33l.62.23.62.13a5.19,5.19,0,0,0,1.17.06,7.39,7.39,0,0,0,1.76-.31A5.79,5.79,0,0,0,338.84,104.07Z"/><path class="cls-5" d="M374.23,167.29a16.6,16.6,0,0,1-.67,1.81c-.23.57-.56,1.25-.93,2s-.84,1.63-1.42,2.52-1.22,1.83-1.93,2.82c-.35.5-.78.95-1.18,1.45a17.45,17.45,0,0,1-1.3,1.46l-1.43,1.42a20.7,20.7,0,0,1-1.57,1.36c-.55.43-1.05.92-1.64,1.31l-1.76,1.19c-.3.19-.58.4-.89.57l-.94.5-1.87,1c-1.25.6-2.56,1-3.78,1.54s-2.52.69-3.69,1c-.29.07-.58.16-.87.21l-.86.13-1.64.23a18.42,18.42,0,0,1-2.86.31l-2.23.05-1.93,0,1.93-.14,2.21-.17a24.28,24.28,0,0,0,2.84-.41l1.61-.28.85-.15c.28-.06.57-.16.85-.24,1.15-.35,2.39-.65,3.62-1.07s2.49-1,3.73-1.55l1.82-1,.92-.5c.3-.17.58-.38.88-.57l1.73-1.16c.59-.37,1.09-.85,1.64-1.27s1.08-.84,1.55-1.32l1.43-1.39a19,19,0,0,0,1.3-1.42c.41-.48.85-.92,1.21-1.4.72-1,1.43-1.85,2-2.75s1.07-1.7,1.51-2.43.76-1.41,1-2A16.36,16.36,0,0,0,374.23,167.29Z"/><path class="cls-5" d="M338.84,181.21a39.09,39.09,0,0,1-5.53.38,47.89,47.89,0,0,1-5.69-.34,41.06,41.06,0,0,1-6.41-1.37,30.78,30.78,0,0,1-3.12-1.18,26.63,26.63,0,0,1-2.87-1.47,20.57,20.57,0,0,1-2.49-1.72,13.63,13.63,0,0,1-1.06-.91,11.67,11.67,0,0,1-.94-.91,17.81,17.81,0,0,1-1.49-1.72c-.4-.55-.73-1-1-1.45l-.77-1.32.84,1.27c.3.38.66.85,1.08,1.37s1,1.06,1.56,1.63a11.66,11.66,0,0,0,1,.86c.34.29.69.58,1.07.85s.77.57,1.2.83a14.76,14.76,0,0,0,1.29.79,24.11,24.11,0,0,0,2.83,1.42,32.26,32.26,0,0,0,3.08,1.12,38.94,38.94,0,0,0,6.3,1.42,52.37,52.37,0,0,0,5.63.51c1.66.06,3,.06,4,0S338.84,181.21,338.84,181.21Z"/><path class="cls-6" d="M377,247.42c-36.34,0-48.47-56.2-31.85-47.27s-16.27-57,12.26-43.93-8.7-40.89,26.91-40.27S389.16,164,411,159s-13.61,53.47,8,45.56S436,247.42,377,247.42Z"/><path class="cls-5" d="M383.22,120.87l.15,30.85c0,18.52.08,43.2.13,67.88s-.1,49.37-.13,67.88l-.15,30.86s-.07-12.34-.16-30.86-.08-43.19-.13-67.88.1-49.36.13-67.88S383.22,120.87,383.22,120.87Z"/><path class="cls-5" d="M357.2,166.26a12.74,12.74,0,0,0,.4,1.46c.13.46.35,1,.57,1.63s.53,1.31.91,2c.19.37.37.75.58,1.14l.69,1.17a11.48,11.48,0,0,0,.81,1.2c.29.39.55.83.88,1.21a21.8,21.8,0,0,0,2.12,2.31c.4.35.76.76,1.19,1.08l1.31,1c.22.15.43.33.66.48l.7.4,1.4.8c1,.47,1.95.82,2.89,1.22s1.93.52,2.84.78a7.89,7.89,0,0,0,1.34.25l1.26.17a14.56,14.56,0,0,0,2.23.23l1.72.06,1.52,0-1.51,0L380,185a11.89,11.89,0,0,1-2.25-.12l-1.29-.13a8.43,8.43,0,0,1-1.37-.21c-.92-.22-1.91-.42-2.91-.71s-2-.75-3-1.22l-1.44-.8-.73-.4c-.23-.15-.45-.33-.68-.49l-1.32-1c-.44-.34-.81-.75-1.21-1.12a20.81,20.81,0,0,1-2.15-2.39c-.33-.4-.59-.84-.88-1.25a12.76,12.76,0,0,1-.77-1.25c-.23-.41-.45-.82-.66-1.21s-.37-.8-.54-1.18a21.83,21.83,0,0,1-.82-2.1c-.19-.65-.37-1.2-.47-1.68A13.34,13.34,0,0,1,357.2,166.26Z"/><path class="cls-5" d="M384.28,175.61s1.64.09,4.1,0c1.22-.06,2.65-.21,4.16-.44a28.61,28.61,0,0,0,4.65-1.08,19,19,0,0,0,4.35-1.92,15.39,15.39,0,0,0,1.8-1.24,11.69,11.69,0,0,0,1.45-1.32,13.84,13.84,0,0,0,1.08-1.26c.3-.4.53-.77.73-1.07l.56-1-.46,1c-.18.31-.38.7-.65,1.13a11.73,11.73,0,0,1-1,1.36,13.58,13.58,0,0,1-1.42,1.42,13.26,13.26,0,0,1-1.81,1.34,19.79,19.79,0,0,1-4.44,2,28.69,28.69,0,0,1-4.75,1,32.93,32.93,0,0,1-4.22.26A27.77,27.77,0,0,1,384.28,175.61Z"/><path class="cls-5" d="M372.82,140.48s0,1.52.27,3.79c.12,1.13.32,2.44.59,3.84a26.6,26.6,0,0,0,1.18,4.26,17.81,17.81,0,0,0,.88,2,13.55,13.55,0,0,0,1.14,1.84,11.46,11.46,0,0,0,1.33,1.5l.71.6.73.48a9.61,9.61,0,0,0,2.53,1l1,.17s-.38,0-1.05-.06a9.14,9.14,0,0,1-1.19-.25c-.23-.07-.47-.13-.72-.22l-.76-.34-.79-.46-.78-.59a9.51,9.51,0,0,1-1.44-1.52,12.08,12.08,0,0,1-1.21-1.88,17.42,17.42,0,0,1-.95-2.11,27,27,0,0,1-1.14-4.36,32,32,0,0,1-.41-3.91A26.82,26.82,0,0,1,372.82,140.48Z"/><path class="cls-5" d="M383.22,146.37a5.79,5.79,0,0,0,.65.22,7.16,7.16,0,0,0,1.78.3,6,6,0,0,0,1.19,0l.62-.14c.21-.05.41-.15.62-.22a2.23,2.23,0,0,0,.61-.32,2.79,2.79,0,0,0,.57-.4l.52-.49a4.83,4.83,0,0,0,.43-.58,5.77,5.77,0,0,0,.75-1.24,7.52,7.52,0,0,0,.53-1.33c.08-.22.15-.43.23-.64l.15-.64c.11-.42.2-.82.29-1.18s.11-.72.17-1,.1-.57.13-.78l.13-.69,0,.7c0,.22,0,.49,0,.8s0,.66-.06,1-.13.78-.2,1.22l-.11.67-.21.68a8.72,8.72,0,0,1-.52,1.39,6.1,6.1,0,0,1-.77,1.36,7.26,7.26,0,0,1-.49.61l-.59.53a3.41,3.41,0,0,1-.64.43,2.67,2.67,0,0,1-.68.33,4.71,4.71,0,0,1-.7.22l-.69.1a6.41,6.41,0,0,1-1.26,0,6.32,6.32,0,0,1-1-.23,6.61,6.61,0,0,1-.75-.29A3.41,3.41,0,0,1,383.22,146.37Z"/><path class="cls-5" d="M347.18,209.59a17.26,17.26,0,0,0,.78,1.79c.27.56.63,1.22,1.05,2s.94,1.58,1.55,2.45,1.29,1.79,2,2.76c.38.47.82.92,1.24,1.4a17.78,17.78,0,0,0,1.34,1.42l1.45,1.39c.49.48,1.06.87,1.6,1.32a31.06,31.06,0,0,0,3.43,2.42,14,14,0,0,0,1.83,1.06l1.86,1c1.26.58,2.56,1,3.78,1.54s2.51.71,3.67,1.06a11.16,11.16,0,0,0,1.73.37l1.64.28a22.73,22.73,0,0,0,2.87.41l2.23.17,2,.14-2-.05-2.25,0a18.92,18.92,0,0,1-2.9-.3l-1.66-.24a10.14,10.14,0,0,1-1.75-.33c-1.19-.31-2.46-.59-3.74-1s-2.56-.95-3.84-1.52l-1.9-1a13.71,13.71,0,0,1-1.86-1.06,30,30,0,0,1-3.48-2.49c-.53-.46-1.1-.87-1.6-1.35l-1.46-1.43a15.14,15.14,0,0,1-1.34-1.45c-.41-.5-.84-1-1.21-1.46-.72-1-1.43-1.91-2-2.84a27.14,27.14,0,0,1-1.46-2.53c-.39-.77-.71-1.46-.95-2A17.57,17.57,0,0,1,347.18,209.59Z"/><path class="cls-5" d="M383.22,223.5s.56.06,1.54.09,2.39,0,4.07,0a53.72,53.72,0,0,0,5.71-.51c1-.15,2.11-.32,3.18-.56s2.16-.52,3.22-.84,2.12-.7,3.14-1.12a26.71,26.71,0,0,0,2.89-1.41c.46-.25.89-.52,1.32-.79a13.54,13.54,0,0,0,1.21-.83c.4-.27.76-.56,1.11-.85s.68-.57,1-.87c.62-.56,1.13-1.13,1.59-1.63s.81-1,1.11-1.38c.56-.81.87-1.28.87-1.28l-.79,1.33c-.28.41-.62.91-1,1.46a20.26,20.26,0,0,1-1.53,1.73,12.2,12.2,0,0,1-1,.91,11.17,11.17,0,0,1-1.09.91c-.38.3-.78.61-1.21.89s-.86.57-1.33.83a26.7,26.7,0,0,1-2.93,1.47,33.23,33.23,0,0,1-3.17,1.17c-1.09.31-2.19.6-3.28.82s-2.17.39-3.22.53a47.47,47.47,0,0,1-5.78.34c-1.69,0-3.1-.12-4.08-.2S383.22,223.5,383.22,223.5Z"/><path class="cls-7" d="M350.59,373.1H476.53s7-21.77-15.84-14.58c-11.19,3.52,9-30.64-18.19-24.19-18.89,4.49-25.52-13.4-39.31-13.11C367,322,391.46,350.65,369.36,348,351.43,345.9,343.65,360.27,350.59,373.1Z"/><path class="cls-8" d="M31.76,373.1H157.7s7-21.77-15.84-14.58c-11.19,3.52,9-30.64-18.18-24.19-18.9,4.49-25.52-13.4-39.31-13.11C48.13,322,72.64,350.65,50.54,348,32.61,345.9,24.82,360.27,31.76,373.1Z"/><path class="cls-9" d="M384.24,375.31c-7.93-20.87-2.51-38.82,7.93-30.89s0-13.77,0-24.21,7.09-10,11.69-4.17,7.09-7.52,11.26-18.37,19.62-10,18.79,2.92-12.52,15.86-5.43,19.2,12.52,11.27-1.67,18.79-6.68,15-1.67,15.86,11.69,10-5.42,20.87Z"/><path class="cls-5" d="M423.06,302.26s-.54,1.07-1.41,3-2,4.66-3.37,8c-.65,1.67-1.37,3.47-2.07,5.4s-1.45,4-2.17,6.08-1.45,4.31-2.18,6.55-1.37,4.53-2.06,6.82-1.29,4.6-1.93,6.86-1.14,4.52-1.69,6.69-1,4.29-1.45,6.29-.81,3.91-1.18,5.66-.72,3.36-.95,4.8-.48,2.68-.67,3.71l-.58,3.24s.18-1.18.49-3.25c.15-1,.34-2.29.55-3.73s.52-3.06.84-4.83.64-3.68,1.1-5.68.86-4.14,1.37-6.32,1.09-4.43,1.66-6.72,1.26-4.57,1.89-6.88,1.36-4.59,2.11-6.82,1.45-4.44,2.22-6.55,1.5-4.15,2.24-6.07,1.49-3.71,2.17-5.37c1.39-3.31,2.67-6,3.58-7.9S423.06,302.26,423.06,302.26Z"/><path class="cls-5" d="M399.47,321.67l0,.39c0,.26.09.63.18,1.1a19.07,19.07,0,0,0,1.15,3.76,15.38,15.38,0,0,0,3,4.63,12.35,12.35,0,0,0,2.4,1.94,10.6,10.6,0,0,0,2.93,1.21,11.67,11.67,0,0,0,3.16.41,14.93,14.93,0,0,0,3.09-.3,22.91,22.91,0,0,0,2.83-.74c.89-.28,1.71-.62,2.46-.93s1.44-.63,2-.95,1.12-.55,1.53-.8l1.31-.74-1.26.82c-.4.27-.91.55-1.48.9s-1.25.68-2,1.06a24.54,24.54,0,0,1-5.33,1.87,15.83,15.83,0,0,1-3.19.34,12.31,12.31,0,0,1-3.3-.39,11.29,11.29,0,0,1-3.07-1.31,12.76,12.76,0,0,1-2.48-2.06,12.36,12.36,0,0,1-1.77-2.42,15.42,15.42,0,0,1-1.14-2.42,17.31,17.31,0,0,1-1-3.87c-.05-.47-.09-.85-.1-1.1Z"/><path class="cls-5" d="M389.25,353.81l.54,1.71a13.18,13.18,0,0,0,.75,1.9,17.48,17.48,0,0,0,1.2,2.35,8.82,8.82,0,0,0,.83,1.26,12.71,12.71,0,0,0,1,1.26l1.18,1.23,1.38,1.1a13.36,13.36,0,0,0,1.54,1,10,10,0,0,0,1.69.79l.88.36.93.23a10.93,10.93,0,0,0,1.87.4c.64.08,1.27.19,1.91.24l1.91,0a13.09,13.09,0,0,0,1.88-.12,15.59,15.59,0,0,0,1.82-.21c1.19-.25,2.36-.37,3.42-.71s2.11-.51,3-.86l2.51-.86,1.9-.78,1.66-.68-1.62.77-1.86.88-2.49,1c-.9.38-1.94.63-3,1a30.64,30.64,0,0,1-3.45.8,18.53,18.53,0,0,1-1.86.23,15.06,15.06,0,0,1-1.91.14h-2c-.65,0-1.3-.15-2-.22a11.69,11.69,0,0,1-1.93-.43l-.95-.25-.9-.38a9.73,9.73,0,0,1-1.75-.84,14.16,14.16,0,0,1-1.58-1c-.48-.4-1-.77-1.41-1.17l-1.17-1.29a10,10,0,0,1-1-1.33,7.54,7.54,0,0,1-.81-1.3l-.65-1.25c-.21-.4-.32-.82-.47-1.18a13.91,13.91,0,0,1-.65-2Z"/><path class="cls-9" d="M119.09,372.9c6.52-17.14,2.06-31.88-6.51-25.37s0-11.31,0-19.88-5.83-8.23-9.6-3.43-5.82-6.17-9.25-15.08-16.11-8.23-15.43,2.4,10.29,13,4.46,15.77-10.29,9.25,1.37,15.42,5.48,12.34,1.37,13S75.9,364,90,372.9Z"/><path class="cls-5" d="M87.21,312.91s.47.86,1.24,2.4,1.81,3.76,3,6.48c.56,1.36,1.18,2.83,1.79,4.41s1.26,3.23,1.85,5,1.22,3.54,1.82,5.38,1.15,3.72,1.74,5.6l1.55,5.66,1.36,5.51c.42,1.8.77,3.54,1.12,5.19s.61,3.23.89,4.68.53,2.77.68,4,.32,2.22.45,3.07c.25,1.7.39,2.67.39,2.67s-.18-1-.48-2.66c-.16-.84-.35-1.87-.56-3.05s-.51-2.49-.79-3.93-.58-3-1-4.65-.78-3.37-1.2-5.16-.92-3.63-1.39-5.5l-1.58-5.63c-.58-1.88-1.1-3.77-1.7-5.6s-1.16-3.65-1.78-5.38-1.2-3.41-1.78-5-1.16-3.07-1.69-4.44c-1.1-2.73-2-5-2.75-6.56S87.21,312.91,87.21,312.91Z"/><path class="cls-5" d="M106.58,328.85l-.09,1.23c0,.39-.15.86-.25,1.41a14.81,14.81,0,0,1-.53,1.77l-.4,1c-.15.33-.36.66-.54,1a6.91,6.91,0,0,1-.65,1,5.72,5.72,0,0,1-.8,1,10.21,10.21,0,0,1-.95.91c-.36.26-.71.55-1.09.8l-1.22.63c-.42.19-.87.29-1.31.44a6.25,6.25,0,0,1-1.36.24,5.65,5.65,0,0,1-1.36.08l-1.34-.06c-.44-.07-.86-.16-1.28-.24a12,12,0,0,1-2.36-.69,12.4,12.4,0,0,1-2-.86,13.72,13.72,0,0,1-1.64-.86l-1.2-.75-1-.67,1.09.57,1.25.67c.47.28,1.06.46,1.67.75a12.51,12.51,0,0,0,2,.76,14.73,14.73,0,0,0,2.31.6c.41.07.82.15,1.24.21l1.29,0a10.54,10.54,0,0,0,2.58-.34c.41-.13.84-.22,1.24-.39l1.16-.58c.36-.24.69-.5,1-.75a7.33,7.33,0,0,0,.91-.85,6.86,6.86,0,0,0,.79-.92,6.06,6.06,0,0,0,.67-.95c.19-.32.4-.63.56-1l.44-.94c.26-.62.44-1.2.62-1.72s.26-1,.34-1.36Z"/><path class="cls-5" d="M115,355.24l-.35,1.43a14.88,14.88,0,0,1-.53,1.61,12.41,12.41,0,0,1-.92,2,7.28,7.28,0,0,1-.66,1.08,8.94,8.94,0,0,1-.8,1.09l-1,1.07c-.37.32-.76.63-1.16,1a12.16,12.16,0,0,1-2.74,1.53l-.75.31-.78.21a8.52,8.52,0,0,1-1.59.36c-.54.06-1.08.15-1.61.18h-1.62a13.65,13.65,0,0,1-1.57-.12,14.85,14.85,0,0,1-1.53-.2,22.59,22.59,0,0,1-2.83-.66,25.86,25.86,0,0,1-2.48-.8l-2-.8-1.52-.73-1.33-.64,1.37.54,1.56.63,2.07.7a25.45,25.45,0,0,0,2.47.7c.88.27,1.84.37,2.81.58a14.32,14.32,0,0,0,1.5.17,13.13,13.13,0,0,0,1.54.1l1.56,0c.52,0,1-.13,1.56-.19a10,10,0,0,0,1.54-.32l.75-.2.72-.29a12.07,12.07,0,0,0,2.65-1.44c.39-.3.76-.6,1.13-.9l1-1a9.62,9.62,0,0,0,.81-1,6.62,6.62,0,0,0,.69-1,14.72,14.72,0,0,0,1-1.92,11.92,11.92,0,0,0,.62-1.56Z"/><path class="cls-3" d="M401.65,416.88s58.14,4.63,34.41-25.5C437.47,402.36,422.42,417.38,401.65,416.88Z"/><path class="cls-3" d="M348.82,419.3c-49.19-3.4-50.52-17.83-40.67-26.82C310.79,400.49,311,411.09,348.82,419.3Z"/><path class="cls-3" d="M377.61,396c-37.78-2.11-53.72,11.73-14.58,12.21S453.66,400.18,377.61,396Z"/><path class="cls-3" d="M374.09,381.64s53.78-8.22,62,10.84C431.19,377.69,407.91,370.11,374.09,381.64Z"/><path class="cls-3" d="M133.71,371.28s-56.58-1.11-72.06,19.2,20.8,15.15,54.75,12.16c9.89-7.74,75-1.8,58.59,7.06-19.11,10.29-52.16,4-57.33-3C54,410.92,42.8,401.47,51.74,389.93S100.81,364.86,133.71,371.28Z"/><path class="cls-10" d="M84,404.38c-52.23,1.27-38.2-42.09,58.51-35.37"/><path class="cls-10" d="M73.69,334.1"/><path class="cls-10" d="M124,255.47"/><path class="cls-10" d="M398.23,252.64c39.94,15.86,59.24,31.83,58.19,62.43-1,28.18-19.82,69.62-111.9,67.57-57.07-1.27-43.43,36.66,31.66,36.66,76.69,0,103.31-59.52-65.18-55.83"/><rect class="cls-5" x="99.66" y="183.13" width="301.15" height="198.99" rx="19.55"/><rect class="cls-1" x="119.64" y="191.82" width="261.18" height="181.61"/><text class="cls-11" transform="translate(166.86 303.13)">404<tspan class="cls-12"><tspan class="cls-13" x="18.55" y="16.45">P</tspan><tspan class="cls-14" x="27.78" y="16.45">A</tspan><tspan x="37.47" y="16.45">GE N</tspan><tspan class="cls-15" x="71.98" y="16.45">O</tspan><tspan class="cls-16" x="83.34" y="16.45">T </tspan><tspan class="cls-17" x="94.8" y="16.45">F</tspan><tspan x="103.36" y="16.45">OUND</tspan></tspan></text><path class="cls-18" d="M113.34,282.63a4.89,4.89,0,1,1-4.89-4.89A4.89,4.89,0,0,1,113.34,282.63Z"/><path class="cls-18" d="M390.6,303.92h0a5,5,0,0,1-5-5V266.33a5,5,0,0,1,5-5h0a5,5,0,0,1,5,5v32.59A5,5,0,0,1,390.6,303.92Z"/><path class="cls-1" d="M156,157.52H130.69a3.78,3.78,0,0,0-3.78,3.78v7.19H70.16v66.26H159.8V161.3A3.78,3.78,0,0,0,156,157.52Z"/><rect class="cls-9" x="72.9" y="171.2" width="84.16" height="60.75"/><text class="cls-19" transform="translate(81.91 210.81)">404<tspan class="cls-20"><tspan class="cls-21" x="7.36" y="6.53">P</tspan><tspan class="cls-22" x="11.02" y="6.53">A</tspan><tspan x="14.86" y="6.53">GE N</tspan><tspan class="cls-23" x="28.55" y="6.53">O</tspan><tspan x="33.06" y="6.53">T </tspan><tspan class="cls-24" x="37.61" y="6.53">F</tspan><tspan x="41" y="6.53">OUND</tspan></tspan></text><rect class="cls-2" x="129.48" y="166.85" width="7.34" height="1.4"/><rect class="cls-2" x="139.11" y="160.91" width="7.34" height="7.34"/><line class="cls-25" x1="148.75" y1="168.25" x2="156.09" y2="160.91"/><line class="cls-25" x1="148.75" y1="160.91" x2="156.09" y2="168.25"/><path class="cls-1" d="M313.25,128.23H287.92a3.79,3.79,0,0,0-3.78,3.78v7.19H227.4v66.26H317V132A3.78,3.78,0,0,0,313.25,128.23Z"/><rect class="cls-26" x="230.14" y="141.92" width="84.16" height="60.75"/><text class="cls-19" transform="translate(239.14 181.52)">404<tspan class="cls-20"><tspan class="cls-21" x="7.36" y="6.53">P</tspan><tspan class="cls-27" x="11.02" y="6.53">A</tspan><tspan x="14.86" y="6.53">GE N</tspan><tspan class="cls-27" x="28.55" y="6.53">O</tspan><tspan x="33.06" y="6.53">T </tspan><tspan class="cls-24" x="37.6" y="6.53">F</tspan><tspan x="41" y="6.53">OUND</tspan></tspan></text><rect class="cls-2" x="286.71" y="137.56" width="7.34" height="1.4"/><rect class="cls-2" x="296.35" y="131.62" width="7.34" height="7.34"/><line class="cls-25" x1="305.98" y1="138.97" x2="313.32" y2="131.62"/><line class="cls-25" x1="305.98" y1="131.62" x2="313.32" y2="138.97"/><path class="cls-1" d="M216.49,63.13H191.16a3.78,3.78,0,0,0-3.78,3.78V74.1H130.63v66.26h89.64V66.91A3.78,3.78,0,0,0,216.49,63.13Z"/><rect class="cls-28" x="133.37" y="76.82" width="84.16" height="60.75"/><text class="cls-29" transform="translate(142.38 116.42)">404<tspan class="cls-20"><tspan class="cls-21" x="7.36" y="6.53">P</tspan><tspan class="cls-23" x="11.02" y="6.53">A</tspan><tspan x="14.86" y="6.53">GE N</tspan><tspan class="cls-23" x="28.55" y="6.53">O</tspan><tspan x="33.06" y="6.53">T </tspan><tspan class="cls-24" x="37.61" y="6.53">F</tspan><tspan x="41" y="6.53">OUND</tspan></tspan></text><rect class="cls-2" x="189.94" y="72.46" width="7.34" height="1.4"/><rect class="cls-2" x="199.58" y="66.52" width="7.34" height="7.34"/><line class="cls-25" x1="209.22" y1="73.87" x2="216.56" y2="66.52"/><line class="cls-25" x1="209.22" y1="66.52" x2="216.56" y2="73.87"/><circle class="cls-30" cx="416.59" cy="259.66" r="8.77"/><path class="cls-10" d="M73.69,334.1c11.16,34.16,84.68,68.47,10.31,70.28"/><path class="cls-10" d="M124,255.47c-41.29,18-60.29,48.18-50.34,78.63"/><circle class="cls-30" cx="109.18" cy="263.34" r="8.77"/><polygon class="cls-31" points="355.54 279.41 357.11 275.09 359.59 275.09 359.59 279.41 355.54 279.41"/><path class="cls-28" d="M372,303.71s-9.27-7.07-10.84-9.43,0-15.52,0-15.52l-6.8-2.1s-2.35,15.53-1.05,20.24,12,14.39,12,14.39Z"/><path class="cls-31" d="M358.49,276.32s3.23,1.49,3.84-1.74l.7-3.23a.7.7,0,0,0-.56-.21c-.38.07-.52.64-.91,1.47a10.91,10.91,0,0,1-.8,1.4,41.52,41.52,0,0,0,.72-5.07c0-.16,0-2.46-.66-1.57a1,1,0,0,0-.14.36L359.54,272q.81-5.21.12-5.41c-.37-.11-.52.39-.57.65-.32,1.51-.63,3-.94,4.52,0-.49.31-3.85-.35-4-.5-.09-.44,1.13-.45,1.41l-.12,2.72c-.06-.64-.1-1.28-.2-1.91a4.29,4.29,0,0,0-.24-1.06c-.17-.39-.42-.44-.5.08a12.35,12.35,0,0,0,0,3.79,19.58,19.58,0,0,0,1,3.45"/><path class="cls-32" d="M405.07,392.13a4.16,4.16,0,0,1-1.19,2.71c-1,.79-2.4-.36-3.33.33l.51.62a3.07,3.07,0,0,1-.37,4.27l-1.29,1.1.56,1.65,4.29-1.46a4.45,4.45,0,0,0,3-3.8l.38-4.17Z"/><path class="cls-31" d="M403.88,394.84a4.16,4.16,0,0,0,1.19-2.71l-4.76-2.34-2.08,2.55,2.32,2.83C401.48,394.48,402.84,395.63,403.88,394.84Z"/><path class="cls-32" d="M363.23,400.69a4.17,4.17,0,0,1-3,.12c-1.17-.58-.73-2.31-1.77-2.83l-.32.73c-.69,1.51-5.57,2.79-7.23,2.91l-1.7.13-.52,1.66,4.32,1.37c1.67.53,4.65.88,6.28.25l3.91-1.51Z"/><path class="cls-31" d="M360.27,400.81a4.17,4.17,0,0,0,3-.12v-5.31l-3.21-.74L358.5,398C359.54,398.5,359.1,400.23,360.27,400.81Z"/><polygon class="cls-33" points="375.59 342.12 368.99 367.94 365.4 397.89 357.29 396.78 358.06 368.7 361.54 337.41 374.83 337.41 375.59 342.12"/><polygon class="cls-33" points="369.65 340.63 377.19 372.88 397.23 395.03 404.41 389.86 388.65 368.14 384.64 349.2 383.67 338.58 369.65 340.63"/><polygon class="cls-33" points="360.9 337.99 360.69 347.43 378.83 349.11 384.4 347.06 383.42 338.64 360.9 337.99"/><polygon class="cls-31" points="401.81 279.86 403.12 275.54 405.35 275.54 405.35 279.86 401.81 279.86"/><path class="cls-28" d="M145.55,286c2.35,3.79,5.36,11.8,6.61,8.12,2.15,2.87-2.69,18.05-19.7,8.63C137.44,300,136.26,285,145.55,286Z"/><path class="cls-31" d="M166.44,404.38l-.15-.14a78.32,78.32,0,0,1-1.45-10.2l-3.06,2.15s.58,4.73.6,8.85C163.71,405.79,165.15,405.37,166.44,404.38Z"/><path class="cls-5" d="M172.87,407.52c-.06-2.72-4.82-1.83-6.43-3.14-1.29,1-2.73,1.41-4.06.66a4.79,4.79,0,0,1-.17.87c-.72,2.26.35,2.66,2.39,2.5C167.83,408.15,172.9,408.76,172.87,407.52Z"/><path class="cls-31" d="M127.5,401.58a1.23,1.23,0,0,1,0-.2,80.72,80.72,0,0,1,5.68-8.6l-3.71-.41s-2.71,3.91-5.42,7C124.52,400.84,125.88,401.47,127.5,401.58Z"/><path class="cls-5" d="M130.23,408.2c1.76-2.08-2.39-4.57-2.73-6.62-1.62-.11-3-.74-3.47-2.19a4.82,4.82,0,0,1-.71.53c-2,1.22-1.5,2.23.13,3.47C126,405.33,129.43,409.15,130.23,408.2Z"/><path class="cls-9" d="M155.37,327.55s5.6,19.79-5.2,39.31c-2.8,11.42-20.85,31.92-20.85,31.92l-4.67-2.84s4.6-8.58,6.13-12c1.46-3.29,3.49-9.05,6.87-12.71a9.61,9.61,0,0,0,2.43-7.58c-1.37-12.07-.53-27,2.13-31.56"/><path class="cls-9" d="M149.39,333.32l-10.12-2.09a15.26,15.26,0,0,0-2.72,16c3.51,8.71,10,15.55,15.87,21,1.63,1.52,2.26,1.36,2.56,3.57,1.07,8,3.58,14.86,4.61,21.73l1.17,7.81,5.79-.85-3.47-33.68c-4.19-13.43-13.87-26.39-13.87-26.39"/><path class="cls-31" d="M147.79,303.92l11.77-7.58s-1.43-2-2-7.33a52.06,52.06,0,0,0-2.43-11.51l1.44-1.57s6.74,14.11,8.05,20c0,4.54-6,8.12-15.29,13.23C147.27,307.59,147.79,303.92,147.79,303.92Z"/><path class="cls-33" d="M135.6,306.63s4.89,17.09,3.67,24.6c7,5.06,15.87,2.44,17.62-.35-1.4-11.87-2.53-14.13-2.53-14.13a6.43,6.43,0,0,0-1.14-9.25c-1.85-1.55-2.18-5.67-2.18-5.67S132.55,300.52,135.6,306.63Z"/><path class="cls-31" d="M156.69,278.71s-3.23,1.49-3.84-1.74l-.69-3.23a.72.72,0,0,1,.55-.21c.39.07.52.64.92,1.48a11.33,11.33,0,0,0,.79,1.39,43.37,43.37,0,0,1-.71-5.06c0-.17,0-2.47.65-1.57a.89.89,0,0,1,.15.36c.38,1.43.76,2.87,1.13,4.31-.54-3.48-.58-5.28-.12-5.42s.52.39.58.66c.31,1.5.62,3,.94,4.51,0-.48-.31-3.85.35-4,.49-.09.43,1.13.45,1.41l.11,2.72c.07-.64.1-1.28.2-1.91a3.9,3.9,0,0,1,.25-1.06c.17-.39.42-.44.5.08a12.74,12.74,0,0,1,0,3.8,19.61,19.61,0,0,1-1,3.44"/><polygon class="cls-30" points="176.54 275.94 187.34 263.73 168.22 211.47 157.43 223.68 176.54 275.94"/><path class="cls-34" d="M144.61,216.48a51.56,51.56,0,0,0-18.34,7.73l-12.16,8.26-10.79,12.21,12.16-8.26h0a51.56,51.56,0,0,1,18.34-7.73l23.61-5,10.8-12.21Z"/><path class="cls-26" d="M133.82,228.69a51.56,51.56,0,0,0-18.34,7.73l-12.16,8.26c-3,2.06-4.12,6-2.71,9.82L107,271.94a11.56,11.56,0,0,0,9,7.34l16,2.28a60.16,60.16,0,0,0,21-.61l23.61-5-19.11-52.26Z"/><path class="cls-5" d="M140.87,277a58.13,58.13,0,0,1-6.6-.36c-2.19-.27-4.37-.6-6.55-.89l-6.55-.91-3.28-.46c-.54-.08-1.09-.13-1.63-.25a6.17,6.17,0,0,1-1.56-.61,6.59,6.59,0,0,1-2.4-2.29,7.94,7.94,0,0,1-.68-1.52l-.57-1.55-2.29-6.2-2.29-6.21-1.14-3.1a3.47,3.47,0,0,1,.36-3.31,7.55,7.55,0,0,1,1.35-1l1.36-.93,2.73-1.87,5.46-3.73a55.68,55.68,0,0,1,5.6-3.54,46.33,46.33,0,0,1,6.05-2.74,50.13,50.13,0,0,1,6.38-1.86l6.46-1.38,12.95-2.7.2-.05.07.19L169.64,272l0,.1-.11,0-14.27,3c-2.38.49-4.75,1.05-7.16,1.36A53.56,53.56,0,0,1,140.87,277Zm0,0a53.36,53.36,0,0,0,7.26-.51c2.41-.32,4.77-.9,7.15-1.4L169.54,272l-.07.12-15.61-42.27.26.14-12.92,2.79-6.47,1.37a49.48,49.48,0,0,0-6.32,1.8,45.3,45.3,0,0,0-6,2.67,57.18,57.18,0,0,0-5.59,3.49l-5.48,3.69-2.74,1.85-1.37.93a7.13,7.13,0,0,0-1.28,1,3.16,3.16,0,0,0-.33,3l1.12,3.1,2.25,6.22,2.25,6.22.57,1.55a7.64,7.64,0,0,0,.65,1.49,6.5,6.5,0,0,0,2.32,2.25,5.81,5.81,0,0,0,1.51.6c.53.12,1.08.17,1.62.26l3.28.47,6.54.95c2.18.31,4.36.66,6.54.94A58.17,58.17,0,0,0,140.87,277Z"/><path class="cls-34" d="M175.21,260c.6,1.68,1.41,2.65,2,2.51l.25-.06c6.23-1.55,30.51-7.38,35.48-8.53,3-.69,8-2,7.43-6.1-.41-2.74-3.66-3.46-6-3-3.47.76-33.78,8.25-39.21,9.59a.62.62,0,0,0-.36.29C174.29,255.55,174.46,257.91,175.21,260Z"/><path class="cls-34" d="M165.34,232c.61,1.68,1.42,2.65,2,2.51l.25-.06c6.23-1.55,30.52-7.38,35.48-8.53,3-.69,8.05-2,7.44-6.1-.42-2.74-3.66-3.46-5.95-3-3.47.76-33.79,8.25-39.22,9.6a.62.62,0,0,0-.36.28C164.43,227.55,164.59,229.91,165.34,232Z"/><polygon class="cls-30" points="348.82 273.11 338.03 260.89 357.14 208.64 367.93 220.85 348.82 273.11"/><path class="cls-34" d="M380.75,213.65a51.42,51.42,0,0,1,18.35,7.73l12.15,8.25,10.8,12.21-12.16-8.25h0a51.38,51.38,0,0,0-18.34-7.73l-23.62-5-10.79-12.21Z"/><path class="cls-26" d="M391.55,225.86a51.38,51.38,0,0,1,18.34,7.73l12.16,8.25c3,2.07,4.11,6,2.71,9.83l-6.38,17.43a11.56,11.56,0,0,1-9,7.35l-16,2.27a60,60,0,0,1-21-.6l-23.61-5,19.11-52.25Z"/><path class="cls-5" d="M384.5,274.13a55.24,55.24,0,0,1-7.27-.47c-2.42-.3-4.79-.87-7.17-1.35l-14.27-3-.1,0,0-.1,15.34-42.38.07-.19.2,0,12.94,2.71,6.47,1.38a49,49,0,0,1,6.38,1.85,46.93,46.93,0,0,1,6.05,2.74,60.13,60.13,0,0,1,5.6,3.55l5.46,3.73L417,244.5l1.36.94a7,7,0,0,1,1.34,1,3.42,3.42,0,0,1,.37,3.3l-1.14,3.11-2.29,6.2-2.29,6.2-.57,1.55a7.71,7.71,0,0,1-.69,1.52,6.59,6.59,0,0,1-2.39,2.3,6.17,6.17,0,0,1-1.56.61c-.55.11-1.09.16-1.64.25l-3.27.45-6.55.91c-2.18.3-4.36.63-6.55.89A58.27,58.27,0,0,1,384.5,274.13Zm0,0a58,58,0,0,0,6.59-.41c2.19-.28,4.37-.62,6.55-.93l6.54-1,3.27-.48c.54-.09,1.1-.14,1.63-.26a5.6,5.6,0,0,0,1.51-.6,6.44,6.44,0,0,0,2.31-2.24,7.11,7.11,0,0,0,.66-1.49l.56-1.56,2.25-6.22,2.26-6.21,1.11-3.11a3.13,3.13,0,0,0-.32-3,7.63,7.63,0,0,0-1.28-1l-1.37-.92L414,243l-5.49-3.7a59.79,59.79,0,0,0-5.58-3.49,46.16,46.16,0,0,0-6-2.67,47.44,47.44,0,0,0-6.32-1.79l-6.46-1.38-12.93-2.78.27-.15L355.9,269.27l-.07-.12,14.25,3.07c2.38.5,4.74,1.08,7.15,1.4A55.28,55.28,0,0,0,384.5,274.13Z"/><path class="cls-31" d="M141.49,303.66s-7.46-10.34-4.05-14.52,7.5-1.7,10.29,3.53-1.67,6.67-1.67,6.67l1.73,4.58A5.27,5.27,0,0,1,141.49,303.66Z"/><path class="cls-28" d="M138.48,293.06c.49,2.75,3.54,12.3-6,9.69,2.1-1.44,2.1-3,.66-7.86s3.66-12.82,12.43-8.89C145.68,287,148.65,291.23,138.48,293.06Z"/><path class="cls-31" d="M132.9,279.18s2.81,1.3,3.34-1.52l.61-2.81a.65.65,0,0,0-.49-.18c-.33.06-.45.56-.79,1.28a10.53,10.53,0,0,1-.7,1.22,36.58,36.58,0,0,0,.63-4.41c0-.15,0-2.15-.57-1.37a.9.9,0,0,0-.13.32l-1,3.75q.7-4.54.11-4.72c-.33-.1-.46.34-.5.57-.28,1.31-.55,2.62-.82,3.94,0-.43.27-3.36-.31-3.46-.43-.07-.38,1-.39,1.23,0,.79-.07,1.58-.1,2.37-.05-.55-.09-1.11-.17-1.66a4.1,4.1,0,0,0-.21-.92c-.16-.34-.37-.39-.44.07a11.06,11.06,0,0,0,0,3.3,17.66,17.66,0,0,0,.86,3"/><path class="cls-31" d="M404.19,277.46s-3.23,1.49-3.84-1.74l-.7-3.23a.72.72,0,0,1,.56-.21c.39.07.52.64.92,1.47a10.63,10.63,0,0,0,.79,1.39,43.07,43.07,0,0,1-.71-5.06c0-.17,0-2.46.65-1.57a1,1,0,0,1,.15.36c.37,1.44.75,2.87,1.13,4.31q-.81-5.21-.12-5.42c.37-.11.52.4.58.66.31,1.51.62,3,.94,4.52,0-.49-.31-3.85.35-4,.49-.08.43,1.14.44,1.41l.12,2.73c.06-.64.1-1.28.2-1.92a3.83,3.83,0,0,1,.25-1.05c.17-.39.42-.45.5.08a12.67,12.67,0,0,1,0,3.79,19.68,19.68,0,0,1-1,3.45"/><path class="cls-31" d="M138.58,302.79l-11.7-8.37s2-1.37,3-6.6a19.74,19.74,0,0,1,5-9.1l-2.1-1.75s-10.64,11.38-12,17.27c0,4.54,3.88,7.47,15.42,14.92C140.93,309.16,138.58,302.79,138.58,302.79Z"/><path class="cls-28" d="M366.92,302.66l17.34-1.14s.32,8.47,0,14-3.84,18.58.14,23.55c-7.27,5.5-23.24,5.76-24.81,0C362,322.81,360.38,305.54,366.92,302.66Z"/><path class="cls-28" d="M382.62,302.14l12.63-4,4.86-18.91h6.41s-.8,19.7-3.16,22.32-19.1,14-19.1,14S379.22,305.54,382.62,302.14Z"/><path class="cls-31" d="M370.32,303.71,372,299c-3.38-.52-4.74-5,0-10.59s11.67-2,11.41,1.3-4.71,9.43-4.71,9.43v2.75A6.44,6.44,0,0,1,370.32,303.71Z"/><path class="cls-35" d="M351.07,252c-.5,3-2.34,5.72-4.12,6.06s-2.81-1.83-2.31-4.84,2.34-5.72,4.12-6.06S351.57,249,351.07,252Z"/><path class="cls-35" d="M360.86,228.67c-.5,3-2.34,5.72-4.12,6.05s-2.81-1.83-2.31-4.84,2.34-5.72,4.11-6S361.35,225.66,360.86,228.67Z"/><path class="cls-9" d="M379.58,297.85c-.39-1.2,2.11-4,.89-4.7s-2.53,1.31-2.53,1.31l-1.05-.48s1.49-1.62,1.14-3.19a2.45,2.45,0,0,1,.79-2.44s-8.38.1-5.24-4.7,11.08,1.65,10.47,5.14C388.58,290.79,380,300.13,379.58,297.85Z"/><path class="cls-5" d="M162.85,217.15l-9,2.36-9.26,2.33-5.24,1.28c-1.77.43-3.56.95-5.31,1.54a56.82,56.82,0,0,0-9.94,4.45c-1.51.86-2.93,1.76-4.27,2.64L116,234.2l-7.86,5,7.69-5.27,3.74-2.53c1.32-.89,2.72-1.86,4.25-2.73a57,57,0,0,1,10-4.55,54.46,54.46,0,0,1,5.37-1.53l5.24-1.24,9.3-2.17Z"/><path class="cls-5" d="M363.59,214.31l9.1,2,9.3,2.17,5.24,1.24c1.8.43,3.6.93,5.38,1.54a57.27,57.27,0,0,1,10,4.55c1.53.87,2.93,1.83,4.26,2.73l3.74,2.53,7.68,5.27-7.86-5-3.79-2.46c-1.34-.87-2.76-1.78-4.27-2.64a57,57,0,0,0-9.93-4.44c-1.76-.59-3.54-1.12-5.32-1.55L381.87,219l-9.26-2.34Z"/><path class="cls-26" d="M171.14,383.33S155.82,358.75,178,372.1c-1.34-68.92,20.41-22.65,14.76-3,25.25-65.09,28-13.27,11.5,3.52,31.79-27.69,8.2,10.71,8.2,10.71H171.14"/><path class="cls-5" d="M141.56,299.57a5.84,5.84,0,0,0,.95.19,5.74,5.74,0,0,0,1,.07,6,6,0,0,0,2.12-.39,6.24,6.24,0,0,0,.89-.39c.26-.12.47-.25.62-.33l.24-.13-.17.21a4,4,0,0,1-.51.52,5.25,5.25,0,0,1-.87.58,4.25,4.25,0,0,1-1.14.38,4.13,4.13,0,0,1-1.21,0,4,4,0,0,1-1-.25A2.89,2.89,0,0,1,141.56,299.57Z"/><path class="cls-5" d="M135.26,292.54s.74-.09,1.81-.28c.54-.08,1.16-.22,1.82-.37a15.58,15.58,0,0,0,2-.62,8.56,8.56,0,0,0,1.87-.92,8.69,8.69,0,0,0,.75-.57,8.09,8.09,0,0,0,.58-.62c.15-.22.26-.44.38-.62a1.83,1.83,0,0,0,.22-.52c.11-.3.17-.48.17-.48l-.06.51a2.4,2.4,0,0,1-.13.57,6.7,6.7,0,0,1-.31.71c-.17.23-.34.5-.55.74a5.72,5.72,0,0,1-.77.69,5.41,5.41,0,0,1-.93.58,7.22,7.22,0,0,1-1,.46,12.33,12.33,0,0,1-2.11.58,18.52,18.52,0,0,1-1.89.2A12.33,12.33,0,0,1,135.26,292.54Z"/><path class="cls-5" d="M143.19,286.21a4.42,4.42,0,0,1-.34,1.36,7.11,7.11,0,0,1-.7,1.27,6.36,6.36,0,0,1-.55.63,4.38,4.38,0,0,1-.66.55,4.63,4.63,0,0,1-.73.45,6.24,6.24,0,0,1-.78.3,5.61,5.61,0,0,1-.75.16,4.29,4.29,0,0,1-.69.06,4.77,4.77,0,0,1-1-.06l-.38-.06.38-.05a9.19,9.19,0,0,0,1-.15,6.09,6.09,0,0,0,.63-.14c.22-.08.45-.14.68-.23a6.3,6.3,0,0,0,1.34-.74,3.64,3.64,0,0,0,.61-.49,6.88,6.88,0,0,0,.54-.54c.14-.2.32-.37.44-.56a6.32,6.32,0,0,0,.36-.54A7.74,7.74,0,0,0,143.19,286.21Z"/><path class="cls-5" d="M139.9,287.25s-.4.11-1,.33a8.68,8.68,0,0,0-.93.4,7,7,0,0,0-1,.58,5.55,5.55,0,0,0-.87.72,4.7,4.7,0,0,0-.64.76c-.36.47-.53.86-.55.85a2.24,2.24,0,0,1,.05-.28,3,3,0,0,1,.22-.73,2.82,2.82,0,0,1,.23-.46,2.3,2.3,0,0,1,.32-.47,4.45,4.45,0,0,1,.92-.86,4.76,4.76,0,0,1,1.1-.56,5.52,5.52,0,0,1,1.05-.26A3.71,3.71,0,0,1,139.9,287.25Z"/><path class="cls-5" d="M136.85,295.28a2.77,2.77,0,0,1,.41.54,4.32,4.32,0,0,1,.51,1.4,3.62,3.62,0,0,1,0,.8,4.34,4.34,0,0,1-.11.69,2.19,2.19,0,0,1-.18.46l-.1.17a1.49,1.49,0,0,1,0-.19c0-.12,0-.28,0-.47,0-.39-.1-.88-.18-1.37s-.18-1-.25-1.37S136.85,295.28,136.85,295.28Z"/><path class="cls-5" d="M143.19,317.9l1.34,0c.39,0,.86,0,1.35,0a11,11,0,0,0,1.51-.08,5.86,5.86,0,0,0,.75-.13,4.41,4.41,0,0,0,.67-.24,3.88,3.88,0,0,0,.57-.33,2.34,2.34,0,0,0,.4-.44,2,2,0,0,0,.25-.45,1.49,1.49,0,0,0,.14-.38l.09-.36s0,.14,0,.38a1.37,1.37,0,0,1,0,.43,1.5,1.5,0,0,1-.18.54,2.57,2.57,0,0,1-.39.58,2.26,2.26,0,0,1-.62.47,4.12,4.12,0,0,1-1.57.49,7.25,7.25,0,0,1-1.61,0,11.49,11.49,0,0,1-1.37-.2c-.4-.07-.72-.18-1-.24Z"/><path class="cls-5" d="M149.61,341s.47.57,1.11,1.45,1.48,2.08,2.26,3.31,1.52,2.48,2,3.44.85,1.62.85,1.62-.47-.56-1.11-1.45-1.48-2.08-2.26-3.31-1.52-2.48-2.05-3.44S149.61,341,149.61,341Z"/><path class="cls-5" d="M139.45,353.8s.76.75,1.87,1.9c.54.58,1.19,1.25,1.86,2l2.1,2.31,3.86,4.38c.54.59,1,1.09,1.29,1.42a6,6,0,0,0,.53.51l-.16-.11a3.06,3.06,0,0,1-.44-.32c-.36-.29-.87-.72-1.45-1.28s-1.24-1.21-1.93-1.93-1.4-1.52-2.12-2.3-1.4-1.6-2.05-2.36-1.23-1.48-1.73-2.1C140.08,354.66,139.45,353.8,139.45,353.8Z"/><path class="cls-5" d="M184.58,338.55s-.05,2.69,0,6.71c0,2,0,4.35,0,6.87s.08,5.19.18,7.86c.06,1.34.11,2.68.17,4s.14,2.62.26,3.86.18,2.47.34,3.6.23,2.23.43,3.21.28,1.91.5,2.69.32,1.5.52,2l.63,1.74-.72-1.7c-.23-.55-.38-1.25-.63-2a26.21,26.21,0,0,1-.62-2.68c-.22-1-.34-2.07-.52-3.22s-.29-2.35-.42-3.6-.2-2.56-.3-3.88-.14-2.66-.21-4c-.07-2.68-.11-5.37-.1-7.88s.07-4.87.14-6.88.17-3.68.24-4.86Z"/><path class="cls-5" d="M210.94,340.85l-.09.45c-.08.3-.19.73-.32,1.27-.3,1.09-.7,2.65-1.27,4.49s-1.22,4-2,6.28-1.64,4.71-2.55,7.12c-.48,1.19-1,2.39-1.44,3.56s-1,2.32-1.48,3.42-1,2.16-1.51,3.13-1,1.93-1.47,2.76a22.62,22.62,0,0,1-1.39,2.24,19.82,19.82,0,0,1-1.18,1.65c-.73.86-1.14,1.36-1.14,1.36s.38-.52,1.06-1.41a18.65,18.65,0,0,0,1.09-1.71c.42-.65.82-1.44,1.28-2.29s.91-1.78,1.38-2.78.93-2.06,1.43-3.15.95-2.26,1.44-3.42.93-2.37,1.4-3.57c.93-2.39,1.82-4.8,2.62-7.07s1.56-4.39,2.16-6.22,1.14-3.34,1.47-4.41l.39-1.25Z"/><path class="cls-5" d="M217.22,367.21a17.42,17.42,0,0,1-1.19,2.5,27.71,27.71,0,0,1-1.51,2.42,29.46,29.46,0,0,1-2.05,2.56,23.83,23.83,0,0,1-2.38,2.25,10.84,10.84,0,0,1-1.2.91,11.84,11.84,0,0,1-1.13.73l-1,.56-.8.35-.71.3.66-.4.75-.44.92-.64a11.16,11.16,0,0,0,1.06-.79c.38-.28.75-.62,1.13-.95a24.27,24.27,0,0,0,2.28-2.26,30.79,30.79,0,0,0,2.07-2.47c.61-.83,1.19-1.6,1.64-2.29C216.68,368.18,217.22,367.21,217.22,367.21Z"/><path class="cls-5" d="M171.88,372a2.12,2.12,0,0,1,.44.15,5.93,5.93,0,0,1,1.08.6,10.7,10.7,0,0,1,1.36,1.07,15.76,15.76,0,0,1,1.38,1.44,20.13,20.13,0,0,1,2.11,3.05c.26.43.43.82.57,1.08l.2.42s-.43-.53-1-1.33c-.3-.4-.66-.86-1-1.34s-.79-1-1.22-1.51-.87-1-1.29-1.45-.84-.86-1.21-1.18A8.15,8.15,0,0,0,171.88,372Z"/><path class="cls-5" d="M376.18,297.34a1.69,1.69,0,0,1-.21.79,2.36,2.36,0,0,1-.55.67,2.53,2.53,0,0,1-.88.45,3.62,3.62,0,0,1-1.79,0,4.19,4.19,0,0,1-.55-.19L372,299s.32,0,.78,0c.23,0,.49,0,.77-.07a4.89,4.89,0,0,0,.83-.17,3.14,3.14,0,0,0,.75-.32,2.75,2.75,0,0,0,.58-.44A3.22,3.22,0,0,0,376.18,297.34Z"/><path class="cls-5" d="M375.08,284.71a2.72,2.72,0,0,1,.74-.21,4.85,4.85,0,0,1,.79,0,3.6,3.6,0,0,1,.9.15,3.1,3.1,0,0,1,.84.4,1.81,1.81,0,0,1,.33.28,2.15,2.15,0,0,1,.25.29,1.84,1.84,0,0,1,.33.7l-.16-.14a2.56,2.56,0,0,0-.4-.34,3.17,3.17,0,0,0-.61-.36,5.09,5.09,0,0,0-.75-.29,10.24,10.24,0,0,0-1.52-.33Z"/><path class="cls-5" d="M379.26,284.66a2,2,0,0,1,.68,0,2.83,2.83,0,0,1,.69.16,2.38,2.38,0,0,1,.72.41,2.21,2.21,0,0,1,.52.67,1.86,1.86,0,0,1,.18.71,1.82,1.82,0,0,1,0,.5l0,.18a5.68,5.68,0,0,0-.23-.61,2.32,2.32,0,0,0-.3-.52,2.13,2.13,0,0,0-.46-.49,5.14,5.14,0,0,0-1.12-.7Z"/><path class="cls-5" d="M384.26,315.48l-.13.08a1,1,0,0,1-.41.14,1.59,1.59,0,0,1-1.32-.77,7.92,7.92,0,0,1-1.2-4.46,13.07,13.07,0,0,1,.24-2.46,13.35,13.35,0,0,1,1.18-3.45l.28-.51-.18.55c-.11.34-.24.84-.4,1.43a18.56,18.56,0,0,0-.55,4.44,9.11,9.11,0,0,0,.89,4.28,1.49,1.49,0,0,0,1.06.84A1.2,1.2,0,0,0,384.26,315.48Z"/><path class="cls-5" d="M395.25,298.11a4.32,4.32,0,0,1-.05.7,8.64,8.64,0,0,1-.31,1.45,8.38,8.38,0,0,1-.56,1.38,4.19,4.19,0,0,1-.35.6,6.31,6.31,0,0,1,0-.69,7.93,7.93,0,0,1,.32-1.46,9.21,9.21,0,0,1,.55-1.38A5,5,0,0,1,395.25,298.11Z"/><path class="cls-5" d="M372.83,354.28a5,5,0,0,1-.89,0,8.25,8.25,0,0,1-1.91-.43,7.4,7.4,0,0,1-1.76-.88,4,4,0,0,1-.68-.57l.23.07c.14.07.36.12.6.22l1.8.63,1.79.65C372.5,354.13,372.83,354.28,372.83,354.28Z"/><path class="cls-5" d="M402.77,373.1s.66.11,1.62.35,2.23.6,3.49,1,2.49.87,3.41,1.24,1.52.66,1.52.66-.66-.12-1.62-.36-2.24-.59-3.49-1-2.49-.87-3.41-1.24S402.77,373.1,402.77,373.1Z"/><path class="cls-5" d="M411.72,370.56s.52.07,1.28.24,1.75.44,2.74.76,1.94.68,2.66,1,1.18.55,1.18.55-.52-.08-1.28-.25-1.76-.43-2.74-.75-1.95-.69-2.66-1S411.72,370.56,411.72,370.56Z"/><path class="cls-5" d="M93.68,366.31s.48.4,1.15,1.06,1.55,1.54,2.38,2.47,1.62,1.9,2.2,2.64.92,1.27.92,1.27-.49-.4-1.16-1.05-1.55-1.55-2.38-2.48-1.62-1.9-2.19-2.64S93.68,366.31,93.68,366.31Z"/><path class="cls-5" d="M100.33,365.29s.47.38,1.13,1,1.53,1.47,2.34,2.37,1.59,1.82,2.15,2.53.91,1.22.91,1.22-.48-.38-1.14-1-1.52-1.48-2.34-2.37-1.59-1.82-2.15-2.54S100.33,365.29,100.33,365.29Z"/><path class="cls-1" d="M184.37,172.29h53.24s-.06-13.41-13.58-8.81-9.9-10.76-27.06-9.6C181.31,154.94,173.32,166,184.37,172.29Z"/><path class="cls-1" d="M266.94,94.7h59.37s-4.57-9.78-10.75-4.89-6.42-16.53-18.94-7.67S262.66,57.72,266.94,94.7Z"/></g></svg>