<svg id="Capa_1" data-name="Capa 1" xmlns="http://www.w3.org/2000/svg" xmlns:xlink="http://www.w3.org/1999/xlink" viewBox="0 0 455.75 372.15"><defs><style>.cls-1{fill:#ccb6f3;}.cls-2{fill:#e0e0e0;}.cls-18,.cls-19,.cls-20,.cls-21,.cls-3{fill:#fff;}.cls-4{fill:#e669ad;}.cls-5{fill:#401a4c;}.cls-6{fill:url(#Degradado_sin_nombre);}.cls-7{fill:url(#Degradado_sin_nombre_2);}.cls-8{fill:url(#Degradado_sin_nombre_3);}.cls-12,.cls-13,.cls-14,.cls-15,.cls-16,.cls-9{fill:#e2469a;}.cls-10,.cls-22{fill:none;stroke-miterlimit:10;}.cls-10{stroke:#4b4be3;stroke-width:5.67px;}.cls-11,.cls-12,.cls-13,.cls-14,.cls-15,.cls-16,.cls-18,.cls-19,.cls-20,.cls-21,.cls-25,.cls-26,.cls-27,.cls-28{isolation:isolate;}.cls-12{font-size:79.97px;}.cls-12,.cls-18,.cls-25{font-family:Montserrat-ExtraBold, Montserrat;font-weight:800;}.cls-13,.cls-14,.cls-15,.cls-16{font-size:13.71px;}.cls-13,.cls-14,.cls-15,.cls-16,.cls-19,.cls-20,.cls-21,.cls-26,.cls-27,.cls-28{font-family:Montserrat-Regular, Montserrat;}.cls-13{letter-spacing:-0.04em;}.cls-14{letter-spacing:-0.01em;}.cls-16{letter-spacing:-0.01em;}.cls-17{fill:#652687;}.cls-18,.cls-25{font-size:31.72px;}.cls-19,.cls-20,.cls-21,.cls-26,.cls-27,.cls-28{font-size:5.44px;}.cls-19,.cls-26{letter-spacing:-0.05em;}.cls-20,.cls-27{letter-spacing:-0.01em;}.cls-22{stroke:#ccb6f3;}.cls-23,.cls-25,.cls-26,.cls-27,.cls-28{fill:#2abfd4;}.cls-24{fill:#4b4be3;}.cls-29{fill:#25adbf;}.cls-30{fill:#f8cba3;}.cls-31{fill:#29bfd4;}.cls-32{fill:#8049e2;}.cls-33{fill:#75d7e6;}.cls-34{fill:#138494;}</style><linearGradient id="Degradado_sin_nombre" x1="337.83" y1="320.32" x2="430.85" y2="320.32" gradientTransform="matrix(1, 0, 0, -1, 0, 502)" gradientUnits="userSpaceOnUse"><stop offset="0" stop-color="#e2469a"/><stop offset="1" stop-color="#e669ad"/></linearGradient><linearGradient id="Degradado_sin_nombre_2" x1="477.54" y1="154.84" x2="348.07" y2="154.84" gradientTransform="matrix(1, 0, 0, -1, 0, 502)" gradientUnits="userSpaceOnUse"><stop offset="0" stop-color="#2abfd4"/><stop offset="0.37" stop-color="#14aabc"/><stop offset="0.73" stop-color="#059cab"/><stop offset="1" stop-color="#0097a5"/></linearGradient><linearGradient id="Degradado_sin_nombre_3" x1="29.24" y1="154.84" x2="158.71" y2="154.84" xlink:href="#Degradado_sin_nombre_2"/></defs><g id="OBJECTS"><path class="cls-1" d="M47.2,367.17S11.66,265.41,43.94,250,37.23,136.77,99.52,119.39,134.45,27,240.26,57.72,353,5.23,402.49,87.63s26.29,122.6,62.56,134,17.41,114.84-11.61,145.57Z" transform="translate(-29.24 -49.98)"/><path class="cls-2" d="M464,375.58c0,4.82-94.95,13.09-212.06,13.09s-212-8.27-212-13.09,94.94-8.73,212.06-8.73S464,370.76,464,375.58Z" transform="translate(-29.24 -49.98)"/><path class="cls-3" d="M206.67,121.1h45.15s.71-8.34-8.92-5.55-3.29-9.43-20.07-8.67C206.21,107.63,197.5,106.88,206.67,121.1Z" transform="translate(-29.24 -49.98)"/><path class="cls-4" d="M345,205.12c35.7,0,47.61-56.2,31.29-47.27s16-57-12.05-43.93S372.76,73,337.79,73.65s-4.79,48.05-26.2,43,13.37,53.47-7.81,45.56S287,205.12,345,205.12Z" transform="translate(-29.24 -49.98)"/><path class="cls-5" d="M338.84,78.57l.15,30.86c0,18.51.09,43.19.13,67.88s-.09,49.36-.13,67.88L338.84,276l-.15-30.85c0-18.52-.08-43.2-.13-67.88s.09-49.37.13-67.88Z" transform="translate(-29.24 -49.98)"/><path class="cls-5" d="M364.39,124a10.33,10.33,0,0,1-.29,1.47c-.09.47-.28,1-.46,1.66a21.89,21.89,0,0,1-.79,2.09c-.17.37-.34.76-.52,1.17l-.65,1.2a14.25,14.25,0,0,1-.75,1.25c-.27.41-.54.84-.85,1.25a22.53,22.53,0,0,1-2.09,2.38c-.4.38-.77.78-1.18,1.13l-1.31,1-.66.5-.71.4-1.43.81c-1,.49-2,.83-2.92,1.23a19.2,19.2,0,0,1-2.87.73,7.85,7.85,0,0,1-1.36.21l-1.27.14a11.87,11.87,0,0,1-2.23.12l-1.72-.05h-1.49l1.5-.06,1.71,0a14.79,14.79,0,0,0,2.2-.23l1.25-.18a6.55,6.55,0,0,0,1.32-.25c.89-.26,1.84-.49,2.8-.8a18.06,18.06,0,0,0,2.84-1.23l1.38-.8.69-.41.64-.49,1.28-1c.41-.35.78-.73,1.16-1.09a21.69,21.69,0,0,0,2.08-2.31c.31-.39.57-.82.86-1.21a11.5,11.5,0,0,0,.77-1.19c.24-.4.46-.79.68-1.17l.56-1.13c.37-.72.61-1.43.88-2a10.14,10.14,0,0,0,.56-1.62A12.23,12.23,0,0,0,364.39,124Z" transform="translate(-29.24 -49.98)"/><path class="cls-5" d="M337.8,133.31a26.09,26.09,0,0,1-4.05.28,32.33,32.33,0,0,1-4.17-.28,27.65,27.65,0,0,1-4.68-1,18.84,18.84,0,0,1-4.35-2,12.93,12.93,0,0,1-1.77-1.35,12.42,12.42,0,0,1-1.39-1.42,13.08,13.08,0,0,1-1-1.35c-.26-.42-.45-.81-.63-1.12l-.44-1,.54,1a11.25,11.25,0,0,0,.71,1c.29.34.64.82,1.05,1.26a12.68,12.68,0,0,0,1.42,1.32,15.48,15.48,0,0,0,1.76,1.24,19.22,19.22,0,0,0,4.26,1.93,27.74,27.74,0,0,0,4.58,1.09c1.49.22,2.9.38,4.11.44A36.48,36.48,0,0,0,337.8,133.31Z" transform="translate(-29.24 -49.98)"/><path class="cls-5" d="M349.05,98.18a28.33,28.33,0,0,1,.05,3.8,36.18,36.18,0,0,1-.4,3.88,27.2,27.2,0,0,1-1.11,4.35,17.81,17.81,0,0,1-.92,2.1,12.72,12.72,0,0,1-1.18,1.89,9,9,0,0,1-1.42,1.53c-.25.22-.52.41-.76.6l-.78.47a7.93,7.93,0,0,1-1.46.58,11.78,11.78,0,0,1-1.18.25c-.67.05-1.05.06-1.05.06l1-.17a11.28,11.28,0,0,0,1.13-.34,10.15,10.15,0,0,0,1.37-.66l.72-.49c.23-.2.48-.38.71-.6a12.29,12.29,0,0,0,2.4-3.36,18.53,18.53,0,0,0,.86-2,25.9,25.9,0,0,0,1.15-4.25c.26-1.39.46-2.69.57-3.82C349,99.7,349.05,98.18,349.05,98.18Z" transform="translate(-29.24 -49.98)"/><path class="cls-5" d="M338.84,104.07a3.6,3.6,0,0,1-.61.33c-.2.09-.46.18-.75.28a5.79,5.79,0,0,1-1,.23,5.23,5.23,0,0,1-1.25,0l-.69-.09c-.23-.06-.45-.15-.69-.23a4.22,4.22,0,0,1-.67-.34,3,3,0,0,1-.62-.45l-.58-.53c-.17-.19-.32-.41-.48-.62a6.33,6.33,0,0,1-.74-1.35,8.53,8.53,0,0,1-.5-1.39c-.07-.23-.14-.45-.2-.68l-.11-.66c-.07-.43-.13-.84-.19-1.21s0-.73-.06-1V94.87l.12.68c.07.44.17,1,.3,1.79.08.36.18.76.28,1.17l.15.64.22.64a7.51,7.51,0,0,0,.51,1.32,6.28,6.28,0,0,0,.73,1.25c.14.19.27.4.42.58l.51.49a2.46,2.46,0,0,0,.55.41,2.62,2.62,0,0,0,.59.33l.62.23.62.13a5.74,5.74,0,0,0,1.17.06,7.47,7.47,0,0,0,1.76-.31A5.89,5.89,0,0,0,338.84,104.07Z" transform="translate(-29.24 -49.98)"/><path class="cls-5" d="M374.23,167.29a16.34,16.34,0,0,1-.67,1.81c-.23.57-.56,1.25-.93,2a24.35,24.35,0,0,1-1.42,2.52c-.58.89-1.22,1.83-1.93,2.82-.35.5-.78.95-1.18,1.45a18.06,18.06,0,0,1-1.3,1.46l-1.43,1.42a20.4,20.4,0,0,1-1.57,1.36c-.55.43-1.05.92-1.64,1.31l-1.76,1.19c-.3.19-.58.4-.89.57l-.94.5-1.87,1c-1.25.6-2.56,1-3.78,1.54a23.35,23.35,0,0,1-3.69,1c-.29.07-.58.16-.87.21l-.86.13-1.64.23a18.26,18.26,0,0,1-2.86.31l-2.23,0h-1.93l1.93-.14,2.21-.17a24.9,24.9,0,0,0,2.84-.41l1.61-.28.85-.15c.28-.06.57-.16.85-.24,1.15-.35,2.39-.65,3.62-1.07s2.49-1,3.73-1.55l1.82-1,.92-.5c.3-.17.58-.38.88-.57l1.73-1.16c.59-.37,1.09-.85,1.64-1.27a14.18,14.18,0,0,0,1.55-1.32l1.43-1.39c.46-.45.89-.93,1.3-1.42s.85-.92,1.21-1.4c.72-1,1.43-1.85,2-2.75s1.07-1.7,1.51-2.43a14.28,14.28,0,0,0,1-2A16.59,16.59,0,0,0,374.23,167.29Z" transform="translate(-29.24 -49.98)"/><path class="cls-5" d="M338.84,181.21a39.33,39.33,0,0,1-5.53.38,47.09,47.09,0,0,1-5.69-.34,41.32,41.32,0,0,1-6.41-1.37,31.71,31.71,0,0,1-3.12-1.18,25.86,25.86,0,0,1-2.87-1.47,21.2,21.2,0,0,1-2.49-1.72,13,13,0,0,1-1.06-.91c-.33-.29-.64-.59-.94-.91a18.74,18.74,0,0,1-1.49-1.72c-.4-.55-.73-1-1-1.45l-.77-1.32.84,1.27c.3.38.66.85,1.08,1.37s1,1.06,1.56,1.63a11.63,11.63,0,0,0,1,.86c.34.29.69.58,1.07.85s.77.57,1.2.83a14.38,14.38,0,0,0,1.29.79,24.93,24.93,0,0,0,2.83,1.42,31.53,31.53,0,0,0,3.08,1.12,38.79,38.79,0,0,0,6.3,1.42,53.28,53.28,0,0,0,5.63.51c1.66.06,3,.06,4,0S338.84,181.21,338.84,181.21Z" transform="translate(-29.24 -49.98)"/><path class="cls-6" d="M377,247.42c-36.34,0-48.47-56.2-31.85-47.27s-16.27-57,12.26-43.93-8.7-40.89,26.91-40.27S389.16,164,411,159s-13.61,53.47,8,45.56S436,247.42,377,247.42Z" transform="translate(-29.24 -49.98)"/><path class="cls-5" d="M383.22,120.87l.15,30.85c0,18.52.08,43.2.13,67.88s-.1,49.37-.13,67.88l-.15,30.86s-.07-12.34-.16-30.86-.08-43.19-.13-67.88.1-49.36.13-67.88S383.22,120.87,383.22,120.87Z" transform="translate(-29.24 -49.98)"/><path class="cls-5" d="M357.2,166.26a12.64,12.64,0,0,0,.4,1.46c.13.46.35,1,.57,1.63a13.32,13.32,0,0,0,.91,2c.19.37.37.75.58,1.14l.69,1.17a11,11,0,0,0,.81,1.2c.29.39.55.83.88,1.21a22.07,22.07,0,0,0,2.12,2.31c.4.35.76.76,1.19,1.08l1.31,1c.22.15.43.33.66.48l.7.4,1.4.8c1,.47,1.95.82,2.89,1.22a22.77,22.77,0,0,0,2.84.78,7.71,7.71,0,0,0,1.34.25l1.26.17a15.19,15.19,0,0,0,2.23.23l1.72.06h0L380,185a12.09,12.09,0,0,1-2.25-.12l-1.29-.13a8,8,0,0,1-1.37-.21c-.92-.22-1.91-.42-2.91-.71a21,21,0,0,1-3-1.22l-1.44-.8-.73-.4c-.23-.15-.45-.33-.68-.49l-1.32-1c-.44-.34-.81-.75-1.21-1.12a20.27,20.27,0,0,1-2.15-2.39c-.33-.4-.59-.84-.88-1.25a12.33,12.33,0,0,1-.77-1.25c-.23-.41-.45-.82-.66-1.21s-.37-.8-.54-1.18c-.31-.69-.58-1.39-.82-2.1s-.37-1.2-.47-1.68A15,15,0,0,1,357.2,166.26Z" transform="translate(-29.24 -49.98)"/><path class="cls-5" d="M384.28,175.61s1.64.09,4.1,0c1.22-.06,2.65-.21,4.16-.44a28.52,28.52,0,0,0,4.65-1.08,19.2,19.2,0,0,0,4.35-1.92,14.74,14.74,0,0,0,1.8-1.24,12.08,12.08,0,0,0,1.45-1.32,14.36,14.36,0,0,0,1.08-1.26c.3-.4.53-.77.73-1.07l.56-1-.46,1c-.18.31-.38.7-.65,1.13a11.06,11.06,0,0,1-1,1.36,13.6,13.6,0,0,1-1.42,1.42,12.46,12.46,0,0,1-1.81,1.34,19.49,19.49,0,0,1-4.44,2,28.45,28.45,0,0,1-4.75,1,33.09,33.09,0,0,1-4.22.26A28.48,28.48,0,0,1,384.28,175.61Z" transform="translate(-29.24 -49.98)"/><path class="cls-5" d="M372.82,140.48a35.53,35.53,0,0,0,.27,3.79c.12,1.13.32,2.44.59,3.84a26.1,26.1,0,0,0,1.18,4.26,18.67,18.67,0,0,0,.88,2,13.41,13.41,0,0,0,1.14,1.84,11.15,11.15,0,0,0,1.33,1.5l.71.6.73.48a9.54,9.54,0,0,0,2.53,1l1,.17s-.38,0-1.05-.06a9.68,9.68,0,0,1-1.19-.25c-.23-.07-.47-.13-.72-.22l-.76-.34-.79-.46-.78-.59a9.43,9.43,0,0,1-1.44-1.52,12,12,0,0,1-1.21-1.88,18.14,18.14,0,0,1-.95-2.11,27.41,27.41,0,0,1-1.14-4.36,32,32,0,0,1-.41-3.91A26.51,26.51,0,0,1,372.82,140.48Z" transform="translate(-29.24 -49.98)"/><path class="cls-5" d="M383.22,146.37a5,5,0,0,0,.65.22,7.21,7.21,0,0,0,1.78.3,5.92,5.92,0,0,0,1.19,0l.62-.14c.21-.05.41-.15.62-.22a2.1,2.1,0,0,0,.61-.32,2.54,2.54,0,0,0,.57-.4l.52-.49a4.83,4.83,0,0,0,.43-.58,6,6,0,0,0,.75-1.24,7.23,7.23,0,0,0,.53-1.33c.08-.22.15-.43.23-.64l.15-.64c.11-.42.2-.82.29-1.18s.11-.72.17-1,.1-.57.13-.78l.13-.69v1.5a5.77,5.77,0,0,1-.06,1c-.06.34-.13.78-.2,1.22l-.11.67-.21.68a8.61,8.61,0,0,1-.52,1.39,6.52,6.52,0,0,1-.77,1.36,7.26,7.26,0,0,1-.49.61l-.59.53a3.41,3.41,0,0,1-.64.43,2.85,2.85,0,0,1-.68.33,5.68,5.68,0,0,1-.7.22l-.69.1a6.63,6.63,0,0,1-1.26,0,6.9,6.9,0,0,1-1-.23,6.13,6.13,0,0,1-.75-.29A3.21,3.21,0,0,1,383.22,146.37Z" transform="translate(-29.24 -49.98)"/><path class="cls-5" d="M347.18,209.59a19,19,0,0,0,.78,1.79c.27.56.63,1.22,1.05,2a24.88,24.88,0,0,0,1.55,2.45c.61.87,1.29,1.79,2,2.76.38.47.82.92,1.24,1.4a18,18,0,0,0,1.34,1.42l1.45,1.39c.49.48,1.06.87,1.6,1.32a31.62,31.62,0,0,0,3.43,2.42,13.83,13.83,0,0,0,1.83,1.06l1.86,1c1.26.58,2.56,1,3.78,1.54a29.34,29.34,0,0,0,3.67,1.06,11.33,11.33,0,0,0,1.73.37l1.64.28a23.33,23.33,0,0,0,2.87.41l2.23.17,2,.14-2,0H379a20.22,20.22,0,0,1-2.9-.3l-1.66-.24a10.39,10.39,0,0,1-1.75-.33c-1.19-.31-2.46-.59-3.74-1a38.24,38.24,0,0,1-3.84-1.52l-1.9-1a13.13,13.13,0,0,1-1.86-1.06,30.56,30.56,0,0,1-3.48-2.49c-.53-.46-1.1-.87-1.6-1.35l-1.46-1.43a14.12,14.12,0,0,1-1.34-1.45c-.41-.5-.84-1-1.21-1.46-.72-1-1.43-1.91-2-2.84a27.65,27.65,0,0,1-1.46-2.53c-.39-.77-.71-1.46-.95-2A18.23,18.23,0,0,1,347.18,209.59Z" transform="translate(-29.24 -49.98)"/><path class="cls-5" d="M383.22,223.5s.56.06,1.54.09,2.39,0,4.07,0a54.54,54.54,0,0,0,5.71-.51c1-.15,2.11-.32,3.18-.56s2.16-.52,3.22-.84,2.12-.7,3.14-1.12a25.72,25.72,0,0,0,2.89-1.41c.46-.25.89-.52,1.32-.79a12.34,12.34,0,0,0,1.21-.83c.4-.27.76-.56,1.11-.85s.68-.57,1-.87c.62-.56,1.13-1.13,1.59-1.63s.81-1,1.11-1.38c.56-.81.87-1.28.87-1.28l-.79,1.33-1,1.46a21,21,0,0,1-1.53,1.73,12.25,12.25,0,0,1-1,.91,10.51,10.51,0,0,1-1.09.91c-.38.3-.78.61-1.21.89s-.86.57-1.33.83a26.72,26.72,0,0,1-2.93,1.47c-1,.44-2.09.83-3.17,1.17s-2.19.6-3.28.82-2.17.39-3.22.53a48.59,48.59,0,0,1-5.78.34c-1.69,0-3.1-.12-4.08-.2A12.15,12.15,0,0,1,383.22,223.5Z" transform="translate(-29.24 -49.98)"/><path class="cls-7" d="M350.59,373.1H476.53s7-21.77-15.84-14.58c-11.19,3.52,9-30.64-18.19-24.19-18.89,4.49-25.52-13.4-39.31-13.11C367,322,391.46,350.65,369.36,348,351.43,345.9,343.65,360.27,350.59,373.1Z" transform="translate(-29.24 -49.98)"/><path class="cls-8" d="M31.76,373.1H157.7s7-21.77-15.84-14.58c-11.19,3.52,9-30.64-18.18-24.19-18.9,4.49-25.52-13.4-39.31-13.11C48.13,322,72.64,350.65,50.54,348,32.61,345.9,24.82,360.27,31.76,373.1Z" transform="translate(-29.24 -49.98)"/><path class="cls-9" d="M384.24,375.31c-7.93-20.87-2.51-38.82,7.93-30.89s0-13.77,0-24.21,7.09-10,11.69-4.17,7.09-7.52,11.26-18.37,19.62-10,18.79,2.92-12.52,15.86-5.43,19.2,12.52,11.27-1.67,18.79-6.68,15-1.67,15.86,11.69,10-5.42,20.87Z" transform="translate(-29.24 -49.98)"/><path class="cls-5" d="M423.06,302.26s-.54,1.07-1.41,3-2,4.66-3.37,8c-.65,1.67-1.37,3.47-2.07,5.4s-1.45,4-2.17,6.08-1.45,4.31-2.18,6.55-1.37,4.53-2.06,6.82-1.29,4.6-1.93,6.86-1.14,4.52-1.69,6.69-1,4.29-1.45,6.29-.81,3.91-1.18,5.66-.72,3.36-.95,4.8-.48,2.68-.67,3.71l-.58,3.24s.18-1.18.49-3.25c.15-1,.34-2.29.55-3.73s.52-3.06.84-4.83.64-3.68,1.1-5.68.86-4.14,1.37-6.32,1.09-4.43,1.66-6.72,1.26-4.57,1.89-6.88,1.36-4.59,2.11-6.82,1.45-4.44,2.22-6.55,1.5-4.15,2.24-6.07,1.49-3.71,2.17-5.37c1.39-3.31,2.67-6,3.58-7.9S423.06,302.26,423.06,302.26Z" transform="translate(-29.24 -49.98)"/><path class="cls-5" d="M399.47,321.67v.39a7.39,7.39,0,0,0,.18,1.1,19,19,0,0,0,1.15,3.76,15.36,15.36,0,0,0,3,4.63,12.44,12.44,0,0,0,2.4,1.94,10.43,10.43,0,0,0,2.93,1.21,11.62,11.62,0,0,0,3.16.41,14.58,14.58,0,0,0,3.09-.3,23.08,23.08,0,0,0,2.83-.74c.89-.28,1.71-.62,2.46-.93a18,18,0,0,0,2-.95c.56-.32,1.12-.55,1.53-.8l1.31-.74-1.26.82c-.4.27-.91.55-1.48.9s-1.25.68-2,1.06a24.63,24.63,0,0,1-5.33,1.87,15.57,15.57,0,0,1-3.19.34,12.27,12.27,0,0,1-3.3-.39,11.11,11.11,0,0,1-3.07-1.31,12.87,12.87,0,0,1-2.48-2.06,12,12,0,0,1-1.77-2.42,15.27,15.27,0,0,1-1.14-2.42,17.35,17.35,0,0,1-1-3.87c-.05-.47-.09-.85-.1-1.1Z" transform="translate(-29.24 -49.98)"/><path class="cls-5" d="M389.25,353.81l.54,1.71a12.93,12.93,0,0,0,.75,1.9,17.32,17.32,0,0,0,1.2,2.35,9.45,9.45,0,0,0,.83,1.26,13.48,13.48,0,0,0,1,1.26l1.18,1.23,1.38,1.1a13.09,13.09,0,0,0,1.54,1,9.62,9.62,0,0,0,1.69.79l.88.36.93.23a10.93,10.93,0,0,0,1.87.4c.64.08,1.27.19,1.91.24h1.91a11.8,11.8,0,0,0,1.88-.12,13.89,13.89,0,0,0,1.82-.21c1.19-.25,2.36-.37,3.42-.71s2.11-.51,3-.86l2.51-.86,1.9-.78,1.66-.68-1.62.77-1.86.88-2.49,1c-.9.38-1.94.63-3,1a31.36,31.36,0,0,1-3.45.8c-.62.11-1.24.18-1.86.23a15.2,15.2,0,0,1-1.91.14h-2c-.65,0-1.3-.15-2-.22a11.69,11.69,0,0,1-1.93-.43l-.95-.25-.9-.38a9.39,9.39,0,0,1-1.75-.84,13.59,13.59,0,0,1-1.58-1c-.48-.4-1-.77-1.41-1.17l-1.17-1.29a10,10,0,0,1-1-1.33,7.87,7.87,0,0,1-.81-1.3l-.65-1.25c-.21-.4-.32-.82-.47-1.18a14.14,14.14,0,0,1-.65-2Z" transform="translate(-29.24 -49.98)"/><path class="cls-9" d="M119.09,372.9c6.52-17.14,2.06-31.88-6.51-25.37s0-11.31,0-19.88-5.83-8.23-9.6-3.43-5.82-6.17-9.25-15.08-16.11-8.23-15.43,2.4,10.29,13,4.46,15.77-10.29,9.25,1.37,15.42,5.48,12.34,1.37,13S75.9,364,90,372.9Z" transform="translate(-29.24 -49.98)"/><path class="cls-5" d="M87.21,312.91s.47.86,1.24,2.4,1.81,3.76,3,6.48c.56,1.36,1.18,2.83,1.79,4.41s1.26,3.23,1.85,5,1.22,3.54,1.82,5.38,1.15,3.72,1.74,5.6l1.55,5.66,1.36,5.51c.42,1.8.77,3.54,1.12,5.19s.61,3.23.89,4.68.53,2.77.68,4,.32,2.22.45,3.07c.25,1.7.39,2.67.39,2.67l-.48-2.66c-.16-.84-.35-1.87-.56-3.05s-.51-2.49-.79-3.93-.58-3-1-4.65-.78-3.37-1.2-5.16-.92-3.63-1.39-5.5l-1.58-5.63c-.58-1.88-1.1-3.77-1.7-5.6s-1.16-3.65-1.78-5.38-1.2-3.41-1.78-5-1.16-3.07-1.69-4.44c-1.1-2.73-2-5-2.75-6.56S87.21,312.91,87.21,312.91Z" transform="translate(-29.24 -49.98)"/><path class="cls-5" d="M106.58,328.85l-.09,1.23a9.62,9.62,0,0,1-.25,1.41,15.65,15.65,0,0,1-.53,1.77l-.4,1c-.15.33-.36.66-.54,1a6.59,6.59,0,0,1-.65,1,6,6,0,0,1-.8,1,10.21,10.21,0,0,1-.95.91c-.36.26-.71.55-1.09.8l-1.22.63c-.42.19-.87.29-1.31.44a6.25,6.25,0,0,1-1.36.24,5.65,5.65,0,0,1-1.36.08l-1.34-.06c-.44-.07-.86-.16-1.28-.24a12.06,12.06,0,0,1-2.36-.69,13.1,13.1,0,0,1-2-.86,14.2,14.2,0,0,1-1.64-.86l-1.2-.75-1-.67,1.09.57,1.25.67c.47.28,1.06.46,1.67.75a12.68,12.68,0,0,0,2,.76,15.37,15.37,0,0,0,2.31.6c.41.07.82.15,1.24.21h1.29a10.68,10.68,0,0,0,2.58-.34c.41-.13.84-.22,1.24-.39l1.16-.58c.36-.24.69-.5,1-.75a7.33,7.33,0,0,0,.91-.85,7,7,0,0,0,.79-.92,5.8,5.8,0,0,0,.67-.95,8.66,8.66,0,0,0,.56-1l.44-.94c.26-.62.44-1.2.62-1.72a11.16,11.16,0,0,0,.34-1.36Z" transform="translate(-29.24 -49.98)"/><path class="cls-5" d="M115,355.24l-.35,1.43a15.15,15.15,0,0,1-.53,1.61,12.46,12.46,0,0,1-.92,2,7.42,7.42,0,0,1-.66,1.08,9.54,9.54,0,0,1-.8,1.09l-1,1.07c-.37.32-.76.63-1.16,1a11.87,11.87,0,0,1-2.74,1.53l-.75.31-.78.21a8.71,8.71,0,0,1-1.59.36c-.54.06-1.08.15-1.61.18h-1.62a13.65,13.65,0,0,1-1.57-.12c-.51,0-1-.11-1.53-.2a22.78,22.78,0,0,1-2.83-.66,23.88,23.88,0,0,1-2.48-.8l-2-.8-1.52-.73-1.33-.64,1.37.54,1.56.63,2.07.7c.81.27,1.64.51,2.47.7s1.84.37,2.81.58c.5.08,1,.14,1.5.17a13.27,13.27,0,0,0,1.54.1h1.56a15,15,0,0,0,1.56-.19,10,10,0,0,0,1.54-.32l.75-.2.72-.29a12.15,12.15,0,0,0,2.65-1.44c.39-.3.76-.6,1.13-.9l1-1a9.82,9.82,0,0,0,.81-1,6.84,6.84,0,0,0,.69-1,15.2,15.2,0,0,0,1-1.92,12.35,12.35,0,0,0,.62-1.56Z" transform="translate(-29.24 -49.98)"/><path class="cls-2" d="M401.65,416.88s58.14,4.63,34.41-25.5C437.47,402.36,422.42,417.38,401.65,416.88Z" transform="translate(-29.24 -49.98)"/><path class="cls-2" d="M348.82,419.3c-49.19-3.4-50.52-17.83-40.67-26.82C310.79,400.49,311,411.09,348.82,419.3Z" transform="translate(-29.24 -49.98)"/><path class="cls-2" d="M377.61,396c-37.78-2.11-53.72,11.73-14.58,12.21S453.66,400.18,377.61,396Z" transform="translate(-29.24 -49.98)"/><path class="cls-2" d="M374.09,381.64s53.78-8.22,62,10.84C431.19,377.69,407.91,370.11,374.09,381.64Z" transform="translate(-29.24 -49.98)"/><path class="cls-2" d="M133.71,371.28s-56.58-1.11-72.06,19.2,20.8,15.15,54.75,12.16c9.89-7.74,75-1.8,58.59,7.06-19.11,10.29-52.16,4-57.33-3C54,410.92,42.8,401.47,51.74,389.93S100.81,364.86,133.71,371.28Z" transform="translate(-29.24 -49.98)"/><path class="cls-10" d="M84,404.38c-52.23,1.27-38.2-42.09,58.51-35.37" transform="translate(-29.24 -49.98)"/><path class="cls-10" d="M73.69,334.1" transform="translate(-29.24 -49.98)"/><path class="cls-10" d="M124,255.47" transform="translate(-29.24 -49.98)"/><path class="cls-10" d="M398.23,252.64c39.94,15.86,59.24,31.83,58.19,62.43-1,28.18-19.82,69.62-111.9,67.57-57.07-1.27-43.43,36.66,31.66,36.66,76.69,0,103.31-59.52-65.18-55.83" transform="translate(-29.24 -49.98)"/><rect class="cls-5" x="70.42" y="133.15" width="301.15" height="198.99" rx="19.55"/><rect class="cls-3" x="90.4" y="141.84" width="261.18" height="181.61"/><g class="cls-11"><text class="cls-12" transform="translate(137.62 253.15)">404</text><text class="cls-13" transform="translate(156.17 269.6)">P</text><text class="cls-14" transform="translate(165.4 269.6)">A</text><text class="cls-15" transform="translate(175.09 269.6)">GE N</text><text class="cls-16" transform="translate(209.6 269.6)">O</text><text class="cls-15" transform="translate(220.96 269.6)">T </text><text class="cls-16" transform="translate(232.42 269.6)">F</text><text class="cls-15" transform="translate(240.98 269.6)">OUND</text></g><path class="cls-17" d="M113.34,282.63a4.89,4.89,0,1,1-4.89-4.89,4.89,4.89,0,0,1,4.89,4.89Z" transform="translate(-29.24 -49.98)"/><path class="cls-17" d="M390.6,303.92h0a5,5,0,0,1-5-5V266.33a5,5,0,0,1,5-5h0a5,5,0,0,1,5,5v32.59a5,5,0,0,1-5,5Z" transform="translate(-29.24 -49.98)"/><path class="cls-3" d="M156,157.52H130.69a3.78,3.78,0,0,0-3.78,3.78v7.19H70.16v66.26H159.8V161.3a3.78,3.78,0,0,0-3.78-3.78Z" transform="translate(-29.24 -49.98)"/><rect class="cls-9" x="43.66" y="121.22" width="84.16" height="60.75"/><g class="cls-11"><text class="cls-18" transform="translate(52.67 160.83)">404</text><text class="cls-19" transform="translate(60.03 167.36)">P</text><text class="cls-20" transform="translate(63.69 167.36)">A</text><text class="cls-21" transform="translate(67.53 167.36)">GE N</text><text class="cls-20" transform="translate(81.22 167.36)">O</text><text class="cls-21" transform="translate(85.73 167.36)">T </text><text class="cls-20" transform="translate(90.28 167.36)">F</text><text class="cls-21" transform="translate(93.67 167.36)">OUND</text></g><rect class="cls-1" x="100.24" y="116.87" width="7.34" height="1.4"/><rect class="cls-1" x="109.87" y="110.93" width="7.34" height="7.34"/><line class="cls-22" x1="119.51" y1="118.27" x2="126.85" y2="110.93"/><line class="cls-22" x1="119.51" y1="110.93" x2="126.85" y2="118.27"/><path class="cls-3" d="M313.25,128.23H287.92a3.79,3.79,0,0,0-3.78,3.78v7.19H227.4v66.26H317V132A3.79,3.79,0,0,0,313.25,128.23Z" transform="translate(-29.24 -49.98)"/><rect class="cls-23" x="200.9" y="91.94" width="84.16" height="60.75"/><g class="cls-11"><text class="cls-18" transform="translate(209.9 131.54)">404</text><text class="cls-19" transform="translate(217.26 138.07)">P</text><text class="cls-20" transform="translate(220.92 138.07)">A</text><text class="cls-21" transform="translate(224.76 138.07)">GE N</text><text class="cls-20" transform="translate(238.45 138.07)">O</text><text class="cls-21" transform="translate(242.96 138.07)">T </text><text class="cls-20" transform="translate(247.5 138.07)">F</text><text class="cls-21" transform="translate(250.9 138.07)">OUND</text></g><rect class="cls-1" x="257.47" y="87.58" width="7.34" height="1.4"/><rect class="cls-1" x="267.11" y="81.64" width="7.34" height="7.34"/><line class="cls-22" x1="276.74" y1="88.99" x2="284.08" y2="81.64"/><line class="cls-22" x1="276.74" y1="81.64" x2="284.08" y2="88.99"/><path class="cls-3" d="M216.49,63.13H191.16a3.78,3.78,0,0,0-3.78,3.78h0V74.1H130.63v66.26h89.64V66.91a3.78,3.78,0,0,0-3.78-3.78Z" transform="translate(-29.24 -49.98)"/><rect class="cls-24" x="104.13" y="26.84" width="84.16" height="60.75"/><g class="cls-11"><text class="cls-25" transform="translate(113.14 66.44)">404</text><text class="cls-26" transform="translate(120.5 72.97)">P</text><text class="cls-27" transform="translate(124.16 72.97)">A</text><text class="cls-28" transform="translate(128 72.97)">GE N</text><text class="cls-27" transform="translate(141.69 72.97)">O</text><text class="cls-28" transform="translate(146.2 72.97)">T </text><text class="cls-27" transform="translate(150.75 72.97)">F</text><text class="cls-28" transform="translate(154.14 72.97)">OUND</text></g><rect class="cls-1" x="160.7" y="22.48" width="7.34" height="1.4"/><rect class="cls-1" x="170.34" y="16.54" width="7.34" height="7.34"/><line class="cls-22" x1="179.98" y1="23.89" x2="187.32" y2="16.54"/><line class="cls-22" x1="179.98" y1="16.54" x2="187.32" y2="23.89"/><circle class="cls-29" cx="387.35" cy="209.68" r="8.77"/><path class="cls-10" d="M73.69,334.1c11.16,34.16,84.68,68.47,10.31,70.28" transform="translate(-29.24 -49.98)"/><path class="cls-10" d="M124,255.47c-41.29,18-60.29,48.18-50.34,78.63" transform="translate(-29.24 -49.98)"/><circle class="cls-29" cx="79.94" cy="213.36" r="8.77"/><polygon class="cls-30" points="326.3 229.43 327.87 225.11 330.35 225.11 330.35 229.43 326.3 229.43"/><path class="cls-24" d="M372,303.71s-9.27-7.07-10.84-9.43,0-15.52,0-15.52l-6.8-2.1s-2.35,15.53-1.05,20.24,12,14.39,12,14.39Z" transform="translate(-29.24 -49.98)"/><path class="cls-30" d="M358.49,276.32s3.23,1.49,3.84-1.74l.7-3.23a.7.7,0,0,0-.56-.21c-.38.07-.52.64-.91,1.47a10.76,10.76,0,0,1-.8,1.4,43.26,43.26,0,0,0,.72-5.07c0-.16,0-2.46-.66-1.57a.93.93,0,0,0-.14.36L359.54,272c.54-3.47.58-5.28.12-5.41s-.52.39-.57.65c-.32,1.51-.63,3-.94,4.52,0-.49.31-3.85-.35-4-.5-.09-.44,1.13-.45,1.41l-.12,2.72c-.06-.64-.1-1.28-.2-1.91a4.29,4.29,0,0,0-.24-1.06c-.17-.39-.42-.44-.5.08a12,12,0,0,0,0,3.79,19.73,19.73,0,0,0,1,3.45" transform="translate(-29.24 -49.98)"/><path class="cls-31" d="M405.07,392.13a4.14,4.14,0,0,1-1.19,2.71c-1,.79-2.4-.36-3.33.33l.51.62a3.07,3.07,0,0,1-.37,4.27l-1.29,1.1.56,1.65,4.29-1.46a4.44,4.44,0,0,0,3-3.8l.38-4.17Z" transform="translate(-29.24 -49.98)"/><path class="cls-30" d="M403.88,394.84a4.14,4.14,0,0,0,1.19-2.71l-4.76-2.34-2.08,2.55,2.32,2.83C401.48,394.48,402.84,395.63,403.88,394.84Z" transform="translate(-29.24 -49.98)"/><path class="cls-31" d="M363.23,400.69a4.2,4.2,0,0,1-3,.12c-1.17-.58-.73-2.31-1.77-2.83l-.32.73c-.69,1.51-5.57,2.79-7.23,2.91l-1.7.13-.52,1.66,4.32,1.37c1.67.53,4.65.88,6.28.25l3.91-1.51Z" transform="translate(-29.24 -49.98)"/><path class="cls-30" d="M360.27,400.81a4.2,4.2,0,0,0,3-.12v-5.31l-3.21-.74L358.5,398C359.54,398.5,359.1,400.23,360.27,400.81Z" transform="translate(-29.24 -49.98)"/><polygon class="cls-32" points="346.35 292.14 339.75 317.96 336.16 347.91 328.05 346.8 328.82 318.72 332.3 287.43 345.59 287.43 346.35 292.14"/><polygon class="cls-32" points="340.41 290.65 347.95 322.9 367.99 345.05 375.17 339.88 359.41 318.16 355.4 299.22 354.43 288.6 340.41 290.65"/><polygon class="cls-32" points="331.66 288.01 331.45 297.45 349.59 299.13 355.16 297.08 354.18 288.66 331.66 288.01"/><polygon class="cls-30" points="372.57 229.88 373.88 225.56 376.11 225.56 376.11 229.88 372.57 229.88"/><path class="cls-24" d="M145.55,286c2.35,3.79,5.36,11.8,6.61,8.12,2.15,2.87-2.69,18.05-19.7,8.63C137.44,300,136.26,285,145.55,286Z" transform="translate(-29.24 -49.98)"/><path class="cls-30" d="M166.44,404.38l-.15-.14a77.78,77.78,0,0,1-1.45-10.2l-3.06,2.15s.58,4.73.6,8.85C163.71,405.79,165.15,405.37,166.44,404.38Z" transform="translate(-29.24 -49.98)"/><path class="cls-5" d="M172.87,407.52c-.06-2.72-4.82-1.83-6.43-3.14-1.29,1-2.73,1.41-4.06.66a5.15,5.15,0,0,1-.17.87c-.72,2.26.35,2.66,2.39,2.5C167.83,408.15,172.9,408.76,172.87,407.52Z" transform="translate(-29.24 -49.98)"/><path class="cls-30" d="M127.5,401.58a.67.67,0,0,1,0-.2,81.92,81.92,0,0,1,5.68-8.6l-3.71-.41s-2.71,3.91-5.42,7C124.52,400.84,125.88,401.47,127.5,401.58Z" transform="translate(-29.24 -49.98)"/><path class="cls-5" d="M130.23,408.2c1.76-2.08-2.39-4.57-2.73-6.62-1.62-.11-3-.74-3.47-2.19a4.52,4.52,0,0,1-.71.53c-2,1.22-1.5,2.23.13,3.47C126,405.33,129.43,409.15,130.23,408.2Z" transform="translate(-29.24 -49.98)"/><path class="cls-9" d="M155.37,327.55s5.6,19.79-5.2,39.31c-2.8,11.42-20.85,31.92-20.85,31.92l-4.67-2.84s4.6-8.58,6.13-12,3.49-9.05,6.87-12.71a9.62,9.62,0,0,0,2.43-7.58c-1.37-12.07-.53-27,2.13-31.56" transform="translate(-29.24 -49.98)"/><path class="cls-9" d="M149.39,333.32l-10.12-2.09a15.27,15.27,0,0,0-2.72,16c3.51,8.71,10,15.55,15.87,21,1.63,1.52,2.26,1.36,2.56,3.57,1.07,8,3.58,14.86,4.61,21.73l1.17,7.81,5.79-.85-3.47-33.68c-4.19-13.43-13.87-26.39-13.87-26.39" transform="translate(-29.24 -49.98)"/><path class="cls-30" d="M147.79,303.92l11.77-7.58s-1.43-2-2-7.33a52,52,0,0,0-2.43-11.51l1.44-1.57s6.74,14.11,8.05,20c0,4.54-6,8.12-15.29,13.23C147.27,307.59,147.79,303.92,147.79,303.92Z" transform="translate(-29.24 -49.98)"/><path class="cls-32" d="M135.6,306.63s4.89,17.09,3.67,24.6c7,5.06,15.87,2.44,17.62-.35-1.4-11.87-2.53-14.13-2.53-14.13a6.43,6.43,0,0,0-.88-9.05l-.26-.2c-1.85-1.55-2.18-5.67-2.18-5.67S132.55,300.52,135.6,306.63Z" transform="translate(-29.24 -49.98)"/><path class="cls-30" d="M156.69,278.71s-3.23,1.49-3.84-1.74l-.69-3.23a.72.72,0,0,1,.55-.21c.39.07.52.64.92,1.48a10.58,10.58,0,0,0,.79,1.39,43.07,43.07,0,0,1-.71-5.06c0-.17,0-2.47.65-1.57a.82.82,0,0,1,.15.36c.38,1.43.76,2.87,1.13,4.31-.54-3.48-.58-5.28-.12-5.42s.52.39.58.66c.31,1.5.62,3,.94,4.51,0-.48-.31-3.85.35-4,.49-.09.43,1.13.45,1.41l.11,2.72c.07-.64.1-1.28.2-1.91a3.9,3.9,0,0,1,.25-1.06c.17-.39.42-.44.5.08a12.74,12.74,0,0,1,0,3.8,19.63,19.63,0,0,1-1,3.44" transform="translate(-29.24 -49.98)"/><polygon class="cls-29" points="147.3 225.96 158.1 213.75 138.98 161.49 128.19 173.7 147.3 225.96"/><path class="cls-33" d="M144.61,216.48a51.55,51.55,0,0,0-18.34,7.73l-12.16,8.26-10.79,12.21,12.16-8.26h0a51.55,51.55,0,0,1,18.34-7.73l23.61-5,10.8-12.21Z" transform="translate(-29.24 -49.98)"/><path class="cls-23" d="M133.82,228.69a51.55,51.55,0,0,0-18.34,7.73l-12.16,8.26c-3,2.06-4.12,6-2.71,9.82L107,271.94a11.54,11.54,0,0,0,9,7.34l16,2.28a60.24,60.24,0,0,0,21-.61l23.61-5L157.5,223.69Z" transform="translate(-29.24 -49.98)"/><path class="cls-5" d="M140.87,277a55.91,55.91,0,0,1-6.6-.36c-2.19-.27-4.37-.6-6.55-.89l-6.55-.91-3.28-.46c-.54-.08-1.09-.13-1.63-.25a6.17,6.17,0,0,1-1.56-.61,6.59,6.59,0,0,1-2.4-2.29,7.67,7.67,0,0,1-.68-1.52l-.57-1.55-2.29-6.2-2.29-6.21-1.14-3.1a3.46,3.46,0,0,1,.36-3.31,7.38,7.38,0,0,1,1.35-1l1.36-.93,2.73-1.87,5.46-3.73a55,55,0,0,1,5.6-3.54,46.33,46.33,0,0,1,6.05-2.74,50.13,50.13,0,0,1,6.38-1.86l6.46-1.38,12.95-2.7.2-.05.07.19L169.64,272v.1h-.11l-14.27,3c-2.38.49-4.75,1-7.16,1.36A54.71,54.71,0,0,1,140.87,277Zm0,0a51.91,51.91,0,0,0,7.26-.51c2.41-.32,4.77-.9,7.15-1.4L169.54,272l-.07.12-15.61-42.27.26.14-12.92,2.79-6.47,1.37a49.48,49.48,0,0,0-6.32,1.8,45.3,45.3,0,0,0-6,2.67,55.56,55.56,0,0,0-5.59,3.49l-5.48,3.69-2.74,1.85-1.37.93a7.24,7.24,0,0,0-1.28,1,3.15,3.15,0,0,0-.33,3l1.12,3.1L109,261.9l2.25,6.22.57,1.55a7.31,7.31,0,0,0,.65,1.49,6.5,6.5,0,0,0,2.32,2.25,5.81,5.81,0,0,0,1.51.6c.53.12,1.08.17,1.62.26l3.28.47,6.54.95c2.18.31,4.36.66,6.54.94A58.14,58.14,0,0,0,140.87,277Z" transform="translate(-29.24 -49.98)"/><path class="cls-33" d="M175.21,260c.6,1.68,1.41,2.65,2,2.51l.25-.06c6.23-1.55,30.51-7.38,35.48-8.53,3-.69,8-2,7.43-6.1-.41-2.74-3.66-3.46-6-3-3.47.76-33.78,8.25-39.21,9.59a.65.65,0,0,0-.36.29C174.29,255.55,174.46,257.91,175.21,260Z" transform="translate(-29.24 -49.98)"/><path class="cls-33" d="M165.34,232c.61,1.68,1.42,2.65,2,2.51l.25-.06c6.23-1.55,30.52-7.38,35.48-8.53,3-.69,8.05-2,7.44-6.1-.42-2.74-3.66-3.46-5.95-3-3.47.76-33.79,8.25-39.22,9.6a.59.59,0,0,0-.36.28C164.43,227.55,164.59,229.91,165.34,232Z" transform="translate(-29.24 -49.98)"/><polygon class="cls-29" points="319.58 223.13 308.79 210.91 327.9 158.66 338.69 170.87 319.58 223.13"/><path class="cls-33" d="M380.75,213.65a51.42,51.42,0,0,1,18.35,7.73l12.15,8.25,10.8,12.21-12.16-8.25h0a51.37,51.37,0,0,0-18.34-7.73l-23.62-5-10.79-12.21Z" transform="translate(-29.24 -49.98)"/><path class="cls-23" d="M391.55,225.86a51.37,51.37,0,0,1,18.34,7.73l12.16,8.25c3,2.07,4.11,6,2.71,9.83l-6.38,17.43a11.55,11.55,0,0,1-9,7.35l-16,2.27a60,60,0,0,1-21-.6l-23.61-5,19.11-52.25Z" transform="translate(-29.24 -49.98)"/><path class="cls-5" d="M384.5,274.13a55.24,55.24,0,0,1-7.27-.47c-2.42-.3-4.79-.87-7.17-1.35l-14.27-3h-.1v-.1L371,226.83l.07-.19h.2l12.94,2.71,6.47,1.38a48.51,48.51,0,0,1,6.38,1.85,46.33,46.33,0,0,1,6.05,2.74,59.38,59.38,0,0,1,5.6,3.55l5.46,3.73,2.8,1.9,1.36.94a6.88,6.88,0,0,1,1.34,1,3.44,3.44,0,0,1,.37,3.3l-1.14,3.11-2.29,6.2-2.29,6.2-.57,1.55a7.71,7.71,0,0,1-.69,1.52,6.59,6.59,0,0,1-2.39,2.3,6.17,6.17,0,0,1-1.56.61c-.55.11-1.09.16-1.64.25l-3.27.45-6.55.91c-2.18.3-4.36.63-6.55.89A58.69,58.69,0,0,1,384.5,274.13Zm0,0a58.14,58.14,0,0,0,6.59-.41c2.19-.28,4.37-.62,6.55-.93l6.54-1,3.27-.48c.54-.09,1.1-.14,1.63-.26a5.81,5.81,0,0,0,1.51-.6,6.44,6.44,0,0,0,2.31-2.24,6.84,6.84,0,0,0,.66-1.49l.56-1.56,2.25-6.22,2.26-6.21,1.11-3.11a3.15,3.15,0,0,0-.32-3,7.73,7.73,0,0,0-1.28-1l-1.37-.92L414,243l-5.49-3.7a60.58,60.58,0,0,0-5.58-3.49,46.63,46.63,0,0,0-6-2.67,47.44,47.44,0,0,0-6.32-1.79L384.15,230l-12.93-2.78.27-.15L355.9,269.27l-.07-.12,14.25,3.07c2.38.5,4.74,1.08,7.15,1.4A55.28,55.28,0,0,0,384.5,274.13Z" transform="translate(-29.24 -49.98)"/><path class="cls-30" d="M141.49,303.66s-7.46-10.34-4.05-14.52,7.5-1.7,10.29,3.53-1.67,6.67-1.67,6.67l1.73,4.58A5.27,5.27,0,0,1,141.49,303.66Z" transform="translate(-29.24 -49.98)"/><path class="cls-24" d="M138.48,293.06c.49,2.75,3.54,12.3-6,9.69,2.1-1.44,2.1-3,.66-7.86s3.66-12.82,12.43-8.89C145.68,287,148.65,291.23,138.48,293.06Z" transform="translate(-29.24 -49.98)"/><path class="cls-30" d="M132.9,279.18s2.81,1.3,3.34-1.52l.61-2.81a.64.64,0,0,0-.49-.18c-.33.06-.45.56-.79,1.28a11.32,11.32,0,0,1-.7,1.22,36.58,36.58,0,0,0,.63-4.41c0-.15,0-2.15-.57-1.37a1,1,0,0,0-.13.32l-1,3.75c.47-3,.5-4.6.11-4.72s-.46.34-.5.57c-.28,1.31-.55,2.62-.82,3.94,0-.43.27-3.36-.31-3.46-.43-.07-.38,1-.39,1.23,0,.79-.07,1.58-.1,2.37,0-.55-.09-1.11-.17-1.66a3.72,3.72,0,0,0-.21-.92c-.16-.34-.37-.39-.44.07a10.74,10.74,0,0,0,0,3.3,18.35,18.35,0,0,0,.86,3" transform="translate(-29.24 -49.98)"/><path class="cls-30" d="M404.19,277.46s-3.23,1.49-3.84-1.74l-.7-3.23a.73.73,0,0,1,.56-.21c.39.07.52.64.92,1.47a10.58,10.58,0,0,0,.79,1.39,43.07,43.07,0,0,1-.71-5.06c0-.17,0-2.46.65-1.57a1.14,1.14,0,0,1,.15.36c.37,1.44.75,2.87,1.13,4.31q-.81-5.21-.12-5.42c.37-.11.52.4.58.66.31,1.51.62,3,.94,4.52,0-.49-.31-3.85.35-4,.49-.08.43,1.14.44,1.41l.12,2.73c.06-.64.1-1.28.2-1.92a3.83,3.83,0,0,1,.25-1.05c.17-.39.42-.45.5.08a12.67,12.67,0,0,1,0,3.79,19.73,19.73,0,0,1-1,3.45" transform="translate(-29.24 -49.98)"/><path class="cls-30" d="M138.58,302.79l-11.7-8.37s2-1.37,3-6.6a19.65,19.65,0,0,1,5-9.1l-2.1-1.75s-10.64,11.38-12,17.27c0,4.54,3.88,7.47,15.42,14.92C140.93,309.16,138.58,302.79,138.58,302.79Z" transform="translate(-29.24 -49.98)"/><path class="cls-24" d="M366.92,302.66l17.34-1.14s.32,8.47,0,14-3.84,18.58.14,23.55c-7.27,5.5-23.24,5.76-24.81,0C362,322.81,360.38,305.54,366.92,302.66Z" transform="translate(-29.24 -49.98)"/><path class="cls-24" d="M382.62,302.14l12.63-4,4.86-18.91h6.41s-.8,19.7-3.16,22.32-19.1,14-19.1,14S379.22,305.54,382.62,302.14Z" transform="translate(-29.24 -49.98)"/><path class="cls-30" d="M370.32,303.71,372,299c-3.38-.52-4.74-5,0-10.59s11.67-2,11.41,1.3-4.71,9.43-4.71,9.43v2.75A6.44,6.44,0,0,1,370.32,303.71Z" transform="translate(-29.24 -49.98)"/><path class="cls-34" d="M351.07,252c-.5,3-2.34,5.72-4.12,6.06s-2.81-1.83-2.31-4.84,2.34-5.72,4.12-6.06S351.57,249,351.07,252Z" transform="translate(-29.24 -49.98)"/><path class="cls-34" d="M360.86,228.67c-.5,3-2.34,5.72-4.12,6.05s-2.81-1.83-2.31-4.84,2.34-5.72,4.11-6S361.35,225.66,360.86,228.67Z" transform="translate(-29.24 -49.98)"/><path class="cls-9" d="M379.58,297.85c-.39-1.2,2.11-4,.89-4.7s-2.53,1.31-2.53,1.31l-1.05-.48s1.49-1.62,1.14-3.19a2.45,2.45,0,0,1,.79-2.44s-8.38.1-5.24-4.7,11.08,1.65,10.47,5.14C388.58,290.79,380,300.13,379.58,297.85Z" transform="translate(-29.24 -49.98)"/><path class="cls-5" d="M162.85,217.15l-9,2.36-9.26,2.33-5.24,1.28c-1.77.43-3.56.95-5.31,1.54a56.4,56.4,0,0,0-9.94,4.45c-1.51.86-2.93,1.76-4.27,2.64L116,234.2l-7.86,5,7.69-5.27,3.74-2.53c1.32-.89,2.72-1.86,4.25-2.73a56.66,56.66,0,0,1,10-4.55,55.67,55.67,0,0,1,5.37-1.53l5.24-1.24,9.3-2.17Z" transform="translate(-29.24 -49.98)"/><path class="cls-5" d="M363.59,214.31l9.1,2,9.3,2.17,5.24,1.24c1.8.43,3.6.93,5.38,1.54a57.39,57.39,0,0,1,10,4.55c1.53.87,2.93,1.83,4.26,2.73l3.74,2.53,7.68,5.27-7.86-5-3.79-2.46c-1.34-.87-2.76-1.78-4.27-2.64a57.34,57.34,0,0,0-9.93-4.44c-1.76-.59-3.54-1.12-5.32-1.55L381.87,219l-9.26-2.34Z" transform="translate(-29.24 -49.98)"/><path class="cls-23" d="M171.14,383.33S155.82,358.75,178,372.1c-1.34-68.92,20.41-22.65,14.76-3,25.25-65.09,28-13.27,11.5,3.52,31.79-27.69,8.2,10.71,8.2,10.71H171.14" transform="translate(-29.24 -49.98)"/><path class="cls-5" d="M141.56,299.57a6.15,6.15,0,0,0,.95.19,5.61,5.61,0,0,0,1,.07,5.94,5.94,0,0,0,2.12-.39,7.06,7.06,0,0,0,.89-.39c.26-.12.47-.25.62-.33l.24-.13-.17.21a3.58,3.58,0,0,1-.51.52,5.07,5.07,0,0,1-.87.58,4.14,4.14,0,0,1-1.14.38,4.09,4.09,0,0,1-1.21,0,3.86,3.86,0,0,1-1-.25A2.94,2.94,0,0,1,141.56,299.57Z" transform="translate(-29.24 -49.98)"/><path class="cls-5" d="M135.26,292.54s.74-.09,1.81-.28c.54-.08,1.16-.22,1.82-.37a15.43,15.43,0,0,0,2-.62,8.55,8.55,0,0,0,1.87-.92q.39-.27.75-.57c.2-.2.4-.4.58-.62s.26-.44.38-.62a2,2,0,0,0,.22-.52c.11-.3.17-.48.17-.48l-.06.51a2.24,2.24,0,0,1-.13.57,6.36,6.36,0,0,1-.31.71c-.17.23-.34.5-.55.74a6.32,6.32,0,0,1-.77.69,5.57,5.57,0,0,1-.93.58,7.52,7.52,0,0,1-1,.46,11.77,11.77,0,0,1-2.11.58,17.31,17.31,0,0,1-1.89.2A12.67,12.67,0,0,1,135.26,292.54Z" transform="translate(-29.24 -49.98)"/><path class="cls-5" d="M143.19,286.21a4.53,4.53,0,0,1-.34,1.36,6.83,6.83,0,0,1-.7,1.27,6.53,6.53,0,0,1-.55.63,4.38,4.38,0,0,1-.66.55,4.93,4.93,0,0,1-.73.45,5.24,5.24,0,0,1-.78.3,6.69,6.69,0,0,1-.75.16,4,4,0,0,1-.69.06,4.2,4.2,0,0,1-1-.06l-.38-.06.38-.05a8.31,8.31,0,0,0,1-.15c.21,0,.42-.08.63-.14s.45-.14.68-.23a6,6,0,0,0,1.34-.74,4.09,4.09,0,0,0,.61-.49,6.88,6.88,0,0,0,.54-.54c.14-.2.32-.37.44-.56a5.07,5.07,0,0,0,.36-.54A7.26,7.26,0,0,0,143.19,286.21Z" transform="translate(-29.24 -49.98)"/><path class="cls-5" d="M139.9,287.25s-.4.11-1,.33a9.64,9.64,0,0,0-.93.4,7.65,7.65,0,0,0-1,.58,5.46,5.46,0,0,0-.87.72,4.68,4.68,0,0,0-.64.76c-.36.47-.53.86-.55.85a2.74,2.74,0,0,1,.05-.28,3.08,3.08,0,0,1,.22-.73,2.82,2.82,0,0,1,.23-.46,2.17,2.17,0,0,1,.32-.47,4.18,4.18,0,0,1,.92-.86,5,5,0,0,1,1.1-.56,5.37,5.37,0,0,1,1.05-.26A3.68,3.68,0,0,1,139.9,287.25Z" transform="translate(-29.24 -49.98)"/><path class="cls-5" d="M136.85,295.28a2.41,2.41,0,0,1,.41.54,4.36,4.36,0,0,1,.51,1.4,3.57,3.57,0,0,1,0,.8,4.13,4.13,0,0,1-.11.69,2,2,0,0,1-.18.46l-.1.17v-.66a9.58,9.58,0,0,0-.18-1.37c-.08-.49-.18-1-.25-1.37S136.85,295.28,136.85,295.28Z" transform="translate(-29.24 -49.98)"/><path class="cls-5" d="M143.19,317.9h2.69a10.92,10.92,0,0,0,1.51-.08,6.54,6.54,0,0,0,.75-.13,4.12,4.12,0,0,0,.67-.24,3.25,3.25,0,0,0,.57-.33,2.38,2.38,0,0,0,.4-.44,2,2,0,0,0,.25-.45,1.74,1.74,0,0,0,.14-.38l.09-.36v.38a1.55,1.55,0,0,1,0,.43,1.5,1.5,0,0,1-.18.54,2.27,2.27,0,0,1-.39.58,2.36,2.36,0,0,1-.62.47,4.17,4.17,0,0,1-1.57.49,7.22,7.22,0,0,1-1.61,0,12.56,12.56,0,0,1-1.37-.2c-.4-.07-.72-.18-1-.24Z" transform="translate(-29.24 -49.98)"/><path class="cls-5" d="M149.61,341s.47.57,1.11,1.45,1.48,2.08,2.26,3.31,1.52,2.48,2,3.44.85,1.62.85,1.62-.47-.56-1.11-1.45-1.48-2.08-2.26-3.31-1.52-2.48-2.05-3.44A17.23,17.23,0,0,1,149.61,341Z" transform="translate(-29.24 -49.98)"/><path class="cls-5" d="M139.45,353.8s.76.75,1.87,1.9c.54.58,1.19,1.25,1.86,2l2.1,2.31,3.86,4.38c.54.59,1,1.09,1.29,1.42a6.38,6.38,0,0,0,.53.51l-.16-.11a2.75,2.75,0,0,1-.44-.32c-.36-.29-.87-.72-1.45-1.28s-1.24-1.21-1.93-1.93-1.4-1.52-2.12-2.3-1.4-1.6-2.05-2.36-1.23-1.48-1.73-2.1C140.08,354.66,139.45,353.8,139.45,353.8Z" transform="translate(-29.24 -49.98)"/><path class="cls-5" d="M184.58,338.55s-.05,2.69,0,6.71v6.87c0,2.52.08,5.19.18,7.86.06,1.34.11,2.68.17,4s.14,2.62.26,3.86.18,2.47.34,3.6.23,2.23.43,3.21.28,1.91.5,2.69.32,1.5.52,2l.63,1.74-.72-1.7c-.23-.55-.38-1.25-.63-2a27.38,27.38,0,0,1-.62-2.68c-.22-1-.34-2.07-.52-3.22s-.29-2.35-.42-3.6-.2-2.56-.3-3.88-.14-2.66-.21-4c-.07-2.68-.11-5.37-.1-7.88s.07-4.87.14-6.88.17-3.68.24-4.86Z" transform="translate(-29.24 -49.98)"/><path class="cls-5" d="M210.94,340.85l-.09.45c-.08.3-.19.73-.32,1.27-.3,1.09-.7,2.65-1.27,4.49s-1.22,4-2,6.28-1.64,4.71-2.55,7.12c-.48,1.19-1,2.39-1.44,3.56s-1,2.32-1.48,3.42-1,2.16-1.51,3.13-1,1.93-1.47,2.76a22.55,22.55,0,0,1-1.39,2.24,19,19,0,0,1-1.18,1.65c-.73.86-1.14,1.36-1.14,1.36s.38-.52,1.06-1.41a19,19,0,0,0,1.09-1.71c.42-.65.82-1.44,1.28-2.29s.91-1.78,1.38-2.78.93-2.06,1.43-3.15.95-2.26,1.44-3.42.93-2.37,1.4-3.57c.93-2.39,1.82-4.8,2.62-7.07s1.56-4.39,2.16-6.22,1.14-3.34,1.47-4.41l.39-1.25Z" transform="translate(-29.24 -49.98)"/><path class="cls-5" d="M217.22,367.21a17.88,17.88,0,0,1-1.19,2.5c-.46.83-1,1.64-1.51,2.42a29.84,29.84,0,0,1-2.05,2.56,24.08,24.08,0,0,1-2.38,2.25,11.82,11.82,0,0,1-1.2.91,12.1,12.1,0,0,1-1.13.73l-1,.56-.8.35-.71.3.66-.4.75-.44.92-.64a11.66,11.66,0,0,0,1.06-.79c.38-.28.75-.62,1.13-.95a24.32,24.32,0,0,0,2.28-2.26c.73-.79,1.42-1.61,2.07-2.47s1.19-1.6,1.64-2.29C216.68,368.18,217.22,367.21,217.22,367.21Z" transform="translate(-29.24 -49.98)"/><path class="cls-5" d="M171.88,372a1.76,1.76,0,0,1,.44.15,5.71,5.71,0,0,1,1.08.6,10.85,10.85,0,0,1,1.36,1.07,15.65,15.65,0,0,1,1.38,1.44,20,20,0,0,1,2.11,3.05c.26.43.43.82.57,1.08l.2.42s-.43-.53-1-1.33c-.3-.4-.66-.86-1-1.34s-.79-1-1.22-1.51-.87-1-1.29-1.45A16.33,16.33,0,0,0,173.3,373,8.26,8.26,0,0,0,171.88,372Z" transform="translate(-29.24 -49.98)"/><path class="cls-5" d="M376.18,297.34a1.66,1.66,0,0,1-.21.79,2.38,2.38,0,0,1-.55.67,2.45,2.45,0,0,1-.88.45,3.62,3.62,0,0,1-1.79,0,3.58,3.58,0,0,1-.55-.19L372,299h.78a3.06,3.06,0,0,0,.77-.07,4.7,4.7,0,0,0,.83-.17,3.08,3.08,0,0,0,.75-.32,2.77,2.77,0,0,0,.58-.44A3.43,3.43,0,0,0,376.18,297.34Z" transform="translate(-29.24 -49.98)"/><path class="cls-5" d="M375.08,284.71a2.72,2.72,0,0,1,.74-.21,5.21,5.21,0,0,1,.79,0,3.39,3.39,0,0,1,.9.15,3.24,3.24,0,0,1,.84.4,1.75,1.75,0,0,1,.33.28,2.26,2.26,0,0,1,.25.29,1.88,1.88,0,0,1,.33.7l-.16-.14a2.57,2.57,0,0,0-.4-.34,3.37,3.37,0,0,0-.61-.36,4.85,4.85,0,0,0-.75-.29,10.06,10.06,0,0,0-1.52-.33Z" transform="translate(-29.24 -49.98)"/><path class="cls-5" d="M379.26,284.66a1.94,1.94,0,0,1,.68,0,2.67,2.67,0,0,1,.69.16,2.24,2.24,0,0,1,.72.41,2.42,2.42,0,0,1,.52.67,1.73,1.73,0,0,1,.18.71,2.09,2.09,0,0,1,0,.5v.18a4.49,4.49,0,0,0-.23-.61,2.43,2.43,0,0,0-.3-.52,2.14,2.14,0,0,0-.46-.49,5,5,0,0,0-1.12-.7Z" transform="translate(-29.24 -49.98)"/><path class="cls-5" d="M384.26,315.48l-.13.08a1,1,0,0,1-.41.14,1.57,1.57,0,0,1-1.32-.77,8,8,0,0,1-1.2-4.46,12.66,12.66,0,0,1,.24-2.46,13.16,13.16,0,0,1,1.18-3.45l.28-.51-.18.55c-.11.34-.24.84-.4,1.43a18.43,18.43,0,0,0-.55,4.44,9,9,0,0,0,.89,4.28,1.49,1.49,0,0,0,1.06.84A1.12,1.12,0,0,0,384.26,315.48Z" transform="translate(-29.24 -49.98)"/><path class="cls-5" d="M395.25,298.11a4.12,4.12,0,0,1-.05.7,8.91,8.91,0,0,1-.31,1.45,8.31,8.31,0,0,1-.56,1.38,4.48,4.48,0,0,1-.35.6q0-.35,0-.69a8.09,8.09,0,0,1,.32-1.46,9.68,9.68,0,0,1,.55-1.38A4.81,4.81,0,0,1,395.25,298.11Z" transform="translate(-29.24 -49.98)"/><path class="cls-5" d="M372.83,354.28a4.41,4.41,0,0,1-.89,0,8.38,8.38,0,0,1-1.91-.43,7.25,7.25,0,0,1-1.76-.88,3.74,3.74,0,0,1-.68-.57l.23.07c.14.07.36.12.6.22l1.8.63L372,354A8.75,8.75,0,0,1,372.83,354.28Z" transform="translate(-29.24 -49.98)"/><path class="cls-5" d="M402.77,373.1s.66.11,1.62.35,2.23.6,3.49,1,2.49.87,3.41,1.24,1.52.66,1.52.66-.66-.12-1.62-.36-2.24-.59-3.49-1-2.49-.87-3.41-1.24S402.77,373.1,402.77,373.1Z" transform="translate(-29.24 -49.98)"/><path class="cls-5" d="M411.72,370.56s.52.07,1.28.24,1.75.44,2.74.76a28.22,28.22,0,0,1,2.66,1c.72.32,1.18.55,1.18.55s-.52-.08-1.28-.25-1.76-.43-2.74-.75-1.95-.69-2.66-1S411.72,370.56,411.72,370.56Z" transform="translate(-29.24 -49.98)"/><path class="cls-5" d="M93.68,366.31s.48.4,1.15,1.06,1.55,1.54,2.38,2.47,1.62,1.9,2.2,2.64.92,1.27.92,1.27-.49-.4-1.16-1.05-1.55-1.55-2.38-2.48-1.62-1.9-2.19-2.64S93.68,366.31,93.68,366.31Z" transform="translate(-29.24 -49.98)"/><path class="cls-5" d="M100.33,365.29s.47.38,1.13,1,1.53,1.47,2.34,2.37,1.59,1.82,2.15,2.53.91,1.22.91,1.22-.48-.38-1.14-1-1.52-1.48-2.34-2.37-1.59-1.82-2.15-2.54S100.33,365.29,100.33,365.29Z" transform="translate(-29.24 -49.98)"/><path class="cls-3" d="M184.37,172.29h53.24s-.06-13.41-13.58-8.81-9.9-10.76-27.06-9.6C181.31,154.94,173.32,166,184.37,172.29Z" transform="translate(-29.24 -49.98)"/><path class="cls-3" d="M266.94,94.7h59.37s-4.57-9.78-10.75-4.89-6.42-16.53-18.94-7.67S262.66,57.72,266.94,94.7Z" transform="translate(-29.24 -49.98)"/></g></svg>